<svg width="96" height="89" viewBox="0 0 96 89" fill="none" xmlns="http://www.w3.org/2000/svg">
<path d="M18.0132 11.1732H20.1545L23.1105 19.7681H21.0783L20.4946 17.845H17.6647L17.081 19.7681H15.0488L18.0132 11.1732ZM20.079 16.4762L19.0797 13.1718L18.0803 16.4762H20.079Z" fill="#1B3764"/>
<path d="M33.158 19.7679V14.6454L31.3063 18.3739H30.2146L28.363 14.6454V19.7679H26.377V11.173H28.5309L30.7563 15.6657L32.9942 11.173H35.1356V19.7679H33.158Z" fill="#1B3764"/>
<path d="M41.3794 11.173H43.5208L46.4767 19.7679H44.4445L43.8609 17.8448H41.0309L40.4473 19.7679H38.415L41.3794 11.173ZM43.4452 16.476L42.4459 13.1716L41.4466 16.476H43.4452Z" fill="#1B3764"/>
<path d="M49.2607 18.2815L53.6443 12.9197H49.4329V11.1772H56.0292V12.6678L51.8514 18.0296H56.0754V19.7721H49.2607V18.2815Z" fill="#1B3764"/>
<path d="M65.7745 18.0254V19.7679H59.7324V11.173H65.6653V12.9155H61.7184V14.5866H65.1069V16.1989H61.7184V18.0254H65.7745Z" fill="#1B3764"/>
<path d="M71.3923 14.8553V19.7721H69.4062V11.173H70.9808L74.9654 16.2325V11.173H76.9515V19.7679H75.3307L71.3923 14.8553Z" fill="#1B3764"/>
<path d="M24.3154 29.9163C24.3154 29.3915 24.412 28.8792 24.6051 28.3712C24.7983 27.8673 25.0796 27.4097 25.4533 26.9982C25.8228 26.5867 26.2763 26.2592 26.8095 26.0115C27.3427 25.7637 27.9474 25.642 28.6234 25.642C29.4295 25.642 30.1307 25.8141 30.7228 26.1626C31.3148 26.5111 31.7599 26.9604 32.0496 27.5188L30.5254 28.5853C30.3953 28.2788 30.2231 28.0395 30.009 27.8715C29.7948 27.7036 29.5597 27.5818 29.3078 27.5146C29.0517 27.4474 28.8081 27.4097 28.5772 27.4097C28.1993 27.4097 27.8676 27.4852 27.5863 27.6322C27.305 27.7833 27.0698 27.9807 26.8851 28.2326C26.7003 28.4845 26.5618 28.7617 26.4736 29.0682C26.3854 29.3747 26.3392 29.6812 26.3392 29.9877C26.3392 30.3278 26.3896 30.6553 26.4946 30.9702C26.5996 31.2851 26.7507 31.5622 26.9481 31.8058C27.1454 32.0493 27.3847 32.2383 27.6703 32.381C27.9516 32.5238 28.2623 32.591 28.6024 32.591C28.8459 32.591 29.0894 32.549 29.3414 32.4692C29.5933 32.3894 29.8242 32.2592 30.0384 32.0871C30.2525 31.9149 30.4163 31.684 30.5296 31.4027L32.1504 32.36C31.9824 32.7799 31.7011 33.1368 31.3148 33.4391C30.9285 33.7372 30.4876 33.9639 30.0006 34.1235C29.5135 34.2789 29.0307 34.3586 28.552 34.3586C27.9306 34.3586 27.3595 34.2327 26.8389 33.9765C26.3182 33.7204 25.869 33.3845 25.4953 32.9604C25.1216 32.5364 24.8277 32.0619 24.6219 31.5329C24.4204 31.0038 24.3154 30.4622 24.3154 29.9163Z" fill="#1B3764"/>
<path d="M39.209 34.3582C38.5624 34.3582 37.9788 34.2364 37.4581 33.9887C36.9375 33.7409 36.4882 33.4134 36.1145 32.9978C35.7408 32.5821 35.4511 32.116 35.2496 31.5954C35.048 31.0747 34.9473 30.5373 34.9473 29.9788C34.9473 29.4078 35.0522 28.862 35.2664 28.3455C35.4805 27.8291 35.7786 27.3672 36.1607 26.9599C36.5428 26.5526 36.9963 26.2335 37.5211 25.9984C38.046 25.7633 38.617 25.6457 39.2384 25.6457C39.8766 25.6457 40.4561 25.7675 40.9767 26.0152C41.4974 26.2629 41.9466 26.5946 42.3203 27.0145C42.694 27.4344 42.9837 27.9046 43.1853 28.4253C43.3868 28.9459 43.4876 29.475 43.4876 30.0166C43.4876 30.5919 43.3826 31.1335 43.1727 31.6499C42.9627 32.1664 42.6646 32.6283 42.2783 33.0355C41.892 33.4428 41.4386 33.7661 40.9179 34.0055C40.4015 34.2406 39.8304 34.3582 39.209 34.3582ZM36.9669 29.9998C36.9669 30.3315 37.0173 30.6506 37.1138 30.9613C37.2104 31.2721 37.3532 31.5492 37.5421 31.7885C37.7311 32.032 37.9662 32.2252 38.2517 32.3679C38.533 32.5149 38.8563 32.5863 39.2216 32.5863C39.5995 32.5863 39.9312 32.5107 40.2125 32.3637C40.4939 32.2168 40.729 32.0152 40.9137 31.7633C41.0985 31.5114 41.237 31.2343 41.3294 30.9236C41.4218 30.6128 41.468 30.2979 41.468 29.9746C41.468 29.6429 41.4218 29.3238 41.321 29.0173C41.2244 28.7108 41.0775 28.4337 40.8843 28.186C40.6912 27.9382 40.4519 27.7493 40.1705 27.6107C39.8892 27.4722 39.5701 27.405 39.2132 27.405C38.8353 27.405 38.5036 27.4764 38.2265 27.6233C37.9494 27.7703 37.7143 27.9634 37.5253 28.2111C37.3364 28.4589 37.1936 28.736 37.1012 29.0467C37.0131 29.3616 36.9669 29.6765 36.9669 29.9998Z" fill="#1B3764"/>
<path d="M47.0645 34.2953V25.7004H50.9399C51.343 25.7004 51.7167 25.7844 52.061 25.9481C52.4053 26.1119 52.6992 26.3344 52.9511 26.6157C53.2031 26.8928 53.3962 27.2077 53.539 27.5562C53.6817 27.9047 53.7489 28.2532 53.7489 28.6101C53.7489 28.967 53.6943 29.3029 53.581 29.622C53.4676 29.9411 53.308 30.2267 53.0981 30.4828C52.8882 30.7389 52.6362 30.9447 52.3465 31.1042L54.236 34.2995H52.0442L50.3983 31.5283H49.0547V34.2995H47.0645V34.2953ZM49.0505 29.7942H50.8686C51.0281 29.7942 51.1751 29.7438 51.2968 29.643C51.4228 29.5423 51.5236 29.4037 51.6033 29.2274C51.6831 29.051 51.7251 28.8453 51.7251 28.6101C51.7251 28.375 51.6789 28.1735 51.5865 27.9971C51.4942 27.825 51.3766 27.6864 51.2422 27.5898C51.1037 27.4933 50.9609 27.4429 50.8056 27.4429H49.0505V29.7942Z" fill="#1B3764"/>
<path d="M57.5996 34.2953V25.7004H61.2693C61.6808 25.7004 62.0587 25.7844 62.403 25.9481C62.7473 26.1119 63.0412 26.3344 63.2932 26.6157C63.5451 26.8928 63.7382 27.2077 63.8726 27.5562C64.0111 27.9047 64.0783 28.2574 64.0783 28.6227C64.0783 29.114 63.965 29.5843 63.734 30.0251C63.5031 30.4702 63.184 30.8313 62.7767 31.1084C62.3694 31.3855 61.8866 31.5241 61.3281 31.5241H59.5856V34.2953H57.5996ZM59.5814 29.7942H61.2022C61.3533 29.7942 61.4961 29.748 61.6262 29.6598C61.7564 29.5717 61.8614 29.4373 61.9412 29.2609C62.0209 29.0846 62.0629 28.8663 62.0629 28.6059C62.0629 28.3414 62.0167 28.1189 61.9244 27.9467C61.832 27.7746 61.7144 27.6444 61.5717 27.5646C61.4289 27.4849 61.2819 27.4429 61.1308 27.4429H59.5814V29.7942Z" fill="#1B3764"/>
<path d="M66.5674 34.2957V32.3223H68.1545V34.2957H66.5674Z" fill="#1B3764"/>
<path d="M18.911 70.0186V70.2034C18.7262 70.2412 18.5835 70.3041 18.4911 70.3965C18.3945 70.4889 18.3315 70.6316 18.3021 70.8248C18.2728 71.0179 18.256 71.2909 18.256 71.6435V76.5687C18.1636 76.5561 18.0628 76.5519 17.9536 76.5519C17.8445 76.5519 17.7311 76.5561 17.6051 76.5687L13.5071 72.0886V74.7548C13.5071 75.1663 13.5239 75.4854 13.5575 75.7038C13.5911 75.9221 13.6751 76.0817 13.8052 76.174C13.9396 76.2706 14.1495 76.3378 14.4393 76.384V76.5687C14.3175 76.5561 14.1537 76.5477 13.9564 76.5435C13.7591 76.5393 13.5743 76.5393 13.4022 76.5393C13.2678 76.5393 13.1292 76.5393 12.9865 76.5435C12.8437 76.5477 12.7262 76.5561 12.6338 76.5687V76.384C12.8269 76.342 12.9655 76.2748 13.0579 76.1866C13.1502 76.0985 13.2132 75.9557 13.2426 75.7583C13.272 75.561 13.2888 75.2881 13.2888 74.9438V71.0011C13.2888 70.7744 13.272 70.6064 13.2426 70.4973C13.2132 70.3881 13.1502 70.3167 13.0537 70.2747C12.9571 70.2328 12.8185 70.2118 12.6338 70.2034V70.0186C12.7262 70.0228 12.8437 70.0312 12.9865 70.0354C13.1292 70.0396 13.2678 70.0438 13.4022 70.0438C13.5575 70.0438 13.7087 70.0396 13.8556 70.0354C14.0026 70.0312 14.137 70.0228 14.2545 70.0186L18.0418 74.0159V71.8325C18.0418 71.421 18.025 71.1019 17.9914 70.8836C17.9578 70.6652 17.8739 70.5057 17.7479 70.4091C17.6177 70.3125 17.4036 70.2412 17.1097 70.2076V70.0228C17.2315 70.027 17.3952 70.0354 17.5925 70.0396C17.7899 70.0438 17.9746 70.048 18.1468 70.048C18.2895 70.048 18.4281 70.0438 18.5667 70.0396C18.701 70.0312 18.8186 70.0228 18.911 70.0186Z" fill="#1B3764"/>
<path d="M26.8799 70.0186C26.8547 70.3251 26.8379 70.6232 26.8295 70.913C26.8211 71.1985 26.8169 71.421 26.8169 71.5764C26.8169 71.7065 26.8211 71.8283 26.8253 71.9459C26.8295 72.0634 26.8379 72.16 26.8421 72.244H26.628C26.5524 71.7317 26.4307 71.3286 26.2585 71.0347C26.0864 70.7408 25.8848 70.5351 25.6539 70.4133C25.423 70.2915 25.1794 70.2328 24.9275 70.2328H24.8057C24.6462 70.2328 24.5244 70.2454 24.4446 70.2747C24.3649 70.3041 24.3103 70.3545 24.2809 70.4385C24.2515 70.5183 24.2389 70.6442 24.2389 70.8164V75.7751C24.2389 75.9431 24.2515 76.0649 24.2809 76.1488C24.3103 76.2328 24.3607 76.2874 24.4446 76.3168C24.5244 76.3462 24.6462 76.3588 24.8057 76.3588H25.1122C25.3138 76.3588 25.5321 76.2916 25.7547 76.1614C25.9814 76.0271 26.1871 75.8003 26.3803 75.4812C26.5734 75.1621 26.7162 74.7213 26.8169 74.167H27.0311C27.0143 74.3895 27.0017 74.6751 27.0017 75.0194C27.0017 75.1747 27.0059 75.3931 27.0101 75.6828C27.0143 75.9683 27.0353 76.2664 27.0647 76.5771C26.7498 76.5645 26.3971 76.5561 26.0024 76.5519C25.6077 76.5477 25.255 76.5477 24.9485 76.5477C24.726 76.5477 24.4278 76.5477 24.0541 76.5477C23.6805 76.5477 23.2858 76.5477 22.8701 76.5519C22.4544 76.5561 22.0681 76.5645 21.707 76.5771V76.3924C21.9002 76.3798 22.0387 76.3546 22.1311 76.3168C22.2235 76.279 22.2865 76.2076 22.3159 76.0943C22.3452 75.9851 22.362 75.8171 22.362 75.5946V71.0011C22.362 70.7744 22.3452 70.6064 22.3159 70.4973C22.2865 70.3881 22.2235 70.3167 22.1269 70.2747C22.0303 70.2328 21.8918 70.2118 21.707 70.2034V70.0186C22.0639 70.0228 22.4502 70.0312 22.8701 70.0354C23.2858 70.0396 23.6805 70.0438 24.0541 70.0438C24.4278 70.0438 24.726 70.0438 24.9485 70.0438C25.234 70.0438 25.5531 70.0438 25.9142 70.0396C26.2711 70.0396 26.5944 70.0312 26.8799 70.0186ZM25.5363 73.1845V73.3692H23.9618V73.1845H25.5363ZM25.805 71.9627C25.7798 72.3154 25.7715 72.5841 25.7715 72.7688C25.7756 72.9536 25.7756 73.1215 25.7756 73.2769C25.7756 73.4322 25.7798 73.6002 25.784 73.7849C25.7882 73.9697 25.805 74.2384 25.8302 74.5911H25.6161C25.5783 74.3644 25.5027 74.1544 25.3894 73.9697C25.276 73.7849 25.129 73.638 24.9485 73.5288C24.7679 73.4196 24.5622 73.365 24.3271 73.365V73.1803C24.5622 73.1803 24.7637 73.1173 24.9359 72.9872C25.108 72.857 25.2508 72.6974 25.36 72.5085C25.4691 72.3196 25.5447 72.139 25.5825 71.9585H25.805V71.9627Z" fill="#1B3764"/>
<path d="M32.3766 70.0186V70.2034C32.2716 70.2202 32.2002 70.2747 32.1666 70.3671C32.133 70.4553 32.1246 70.5603 32.1372 70.6736C32.154 70.787 32.175 70.892 32.2086 70.9843L33.6068 74.9186L33.3465 75.3175L34.455 72.3112L34.5851 72.5799L33.1701 76.5771C33.0945 76.5729 33.019 76.5645 32.935 76.5645C32.851 76.5645 32.767 76.5603 32.6789 76.5603C32.5991 76.5603 32.5151 76.5603 32.4353 76.5645C32.3514 76.5687 32.2716 76.5729 32.2002 76.5771L30.0546 70.8038C29.9749 70.5897 29.8867 70.4385 29.7859 70.3503C29.6893 70.2621 29.5928 70.216 29.5088 70.2118V70.027C29.7313 70.0312 29.9916 70.0396 30.2898 70.0438C30.5879 70.048 30.8734 70.0522 31.1463 70.0522C31.4192 70.0522 31.6586 70.048 31.8685 70.0438C32.0784 70.0312 32.2464 70.0228 32.3766 70.0186ZM39.0694 70.0186V70.2034C38.9267 70.2705 38.7797 70.4049 38.6243 70.6022C38.469 70.7996 38.3304 71.0977 38.2087 71.5008L36.6551 76.5729C36.5795 76.5687 36.504 76.5603 36.42 76.5603C36.336 76.5603 36.252 76.5561 36.1639 76.5561C36.0841 76.5561 36.0001 76.5561 35.9203 76.5603C35.8364 76.5645 35.7566 76.5687 35.6852 76.5729L33.7412 70.64C33.6908 70.4805 33.6278 70.3671 33.548 70.3083C33.4682 70.2454 33.3759 70.2118 33.2709 70.2076V70.0228C33.4808 70.027 33.7286 70.0354 34.0099 70.0396C34.2954 70.0438 34.5809 70.048 34.8706 70.048C35.1603 70.048 35.4333 70.0438 35.6894 70.0396C35.9455 70.0354 36.1513 70.027 36.3066 70.0228V70.2076C36.1135 70.2118 35.9665 70.237 35.8615 70.2789C35.7566 70.3209 35.6978 70.3923 35.681 70.5015C35.6642 70.6106 35.6936 70.7702 35.7692 70.9885L37.0372 74.8388L36.7685 75.4015L37.7048 72.4119C37.877 71.8619 37.9609 71.4294 37.9525 71.1103C37.9483 70.7912 37.8728 70.5645 37.73 70.4259C37.5872 70.2873 37.3941 70.216 37.1464 70.2076V70.0228C37.3815 70.027 37.5872 70.0354 37.772 70.0396C37.9525 70.0438 38.1499 70.048 38.3598 70.048C38.4816 70.048 38.6075 70.0438 38.7377 70.0396C38.8637 70.0312 38.977 70.0228 39.0694 70.0186Z" fill="#1B3764"/>
<path d="M51.2119 70.0106V70.1953C51.0691 70.2625 50.918 70.3926 50.7584 70.5774C50.5989 70.7621 50.4225 71.0477 50.2294 71.4255L48.5624 74.73H47.941L45.7745 70.7244C45.6695 70.527 45.5729 70.3926 45.4805 70.3171C45.3882 70.2415 45.3084 70.2079 45.2412 70.2079V70.0148C45.4344 70.0316 45.6317 70.0483 45.8374 70.0567C46.0432 70.0651 46.2699 70.0693 46.5176 70.0693C46.8325 70.0693 47.1727 70.0651 47.5421 70.0525C47.9074 70.0399 48.2475 70.0274 48.554 70.0148V70.2079C48.3987 70.2079 48.2559 70.2121 48.13 70.2247C47.9998 70.2373 47.9074 70.2667 47.8529 70.3129C47.7983 70.3591 47.7983 70.4388 47.8529 70.5564L49.251 73.2394L48.8144 73.8147L49.5911 72.2611C49.8515 71.7489 49.9942 71.3458 50.0194 71.0477C50.0488 70.7537 49.9942 70.5354 49.8557 70.4052C49.7213 70.2709 49.5282 70.2037 49.2804 70.1953V70.0106C49.5156 70.0148 49.7213 70.0232 49.9061 70.0274C50.0866 70.0316 50.2839 70.0358 50.4939 70.0358C50.6157 70.0358 50.7416 70.0316 50.8718 70.0274C51.0061 70.0232 51.1195 70.0148 51.2119 70.0106ZM49.3686 72.9329V75.5907C49.3686 75.8133 49.3854 75.9812 49.419 76.0904C49.4526 76.1996 49.5156 76.2751 49.6079 76.3129C49.7003 76.3507 49.8389 76.3759 50.0236 76.3885V76.5732C49.8431 76.5607 49.6079 76.5523 49.3098 76.5481C49.0159 76.5439 48.722 76.5439 48.4323 76.5439C48.1174 76.5439 47.8151 76.5439 47.5211 76.5481C47.2272 76.5523 46.9963 76.5607 46.8325 76.5732V76.3885C47.0257 76.3759 47.1643 76.3507 47.2566 76.3129C47.349 76.2751 47.412 76.2038 47.4414 76.0904C47.4708 75.9812 47.4876 75.8133 47.4876 75.5907V73.6929L48.4953 74.2681L49.3686 72.9329Z" fill="#1B3764"/>
<path d="M56.9683 69.8889C57.6653 69.8889 58.2783 70.0232 58.799 70.2877C59.3238 70.5523 59.7311 70.9344 60.0208 71.4298C60.3105 71.9253 60.4575 72.5299 60.4575 73.2395C60.4575 73.9323 60.3105 74.5369 60.0124 75.0534C59.7143 75.5698 59.3028 75.9771 58.778 76.2668C58.2489 76.5565 57.6443 76.7035 56.9599 76.7035C56.2629 76.7035 55.6499 76.5691 55.1292 76.3046C54.6044 76.0401 54.1971 75.658 53.9074 75.1583C53.6177 74.6587 53.4707 74.0582 53.4707 73.3528C53.4707 72.66 53.6219 72.0554 53.92 71.539C54.2181 71.0225 54.6296 70.6152 55.1544 70.3255C55.6793 70.0358 56.2839 69.8889 56.9683 69.8889ZM56.9305 70.0568C56.624 70.0568 56.3553 70.1954 56.1243 70.4725C55.8976 70.7496 55.7213 71.1317 55.5953 71.6188C55.4735 72.1058 55.4105 72.6727 55.4105 73.3109C55.4105 73.9659 55.4819 74.5327 55.6247 75.0198C55.7674 75.5026 55.9564 75.8763 56.1999 76.1408C56.4392 76.4012 56.7038 76.5355 56.9977 76.5355C57.3042 76.5355 57.5729 76.397 57.8038 76.1198C58.0306 75.8427 58.2069 75.4564 58.3329 74.9694C58.4547 74.4781 58.5176 73.9155 58.5176 73.2815C58.5176 72.6223 58.4463 72.0512 58.3035 71.5684C58.1607 71.0855 57.9718 70.716 57.7283 70.4515C57.4847 70.187 57.2202 70.0568 56.9305 70.0568Z" fill="#1B3764"/>
<path d="M63.2881 70.0186C63.4686 70.0228 63.7038 70.0312 63.9977 70.0354C64.2916 70.0396 64.5855 70.0438 64.8836 70.0438C65.1901 70.0438 65.4882 70.0396 65.7738 70.0354C66.0593 70.0312 66.2566 70.027 66.3742 70.027C67.3105 70.027 68.0117 70.1572 68.4694 70.4217C68.9271 70.682 69.158 71.0893 69.158 71.6393C69.158 71.8661 69.1118 72.0886 69.0194 72.307C68.9271 72.5211 68.7717 72.7184 68.5492 72.8948C68.3266 73.0711 68.0243 73.2097 67.638 73.3105C67.2517 73.4112 66.7647 73.4616 66.1727 73.4616H65.2825V73.2769H66.0803C66.3952 73.2769 66.6345 73.2055 66.7983 73.0669C66.962 72.9284 67.0712 72.7436 67.13 72.5127C67.1888 72.2818 67.2181 72.0256 67.2181 71.7401C67.2181 71.2531 67.151 70.8752 67.0208 70.6064C66.8864 70.3377 66.6597 70.2034 66.3322 70.2034C66.1223 70.2034 65.9879 70.2538 65.9249 70.3587C65.8619 70.4637 65.8325 70.6778 65.8325 70.9969V75.5862C65.8325 75.8087 65.8493 75.9767 65.8829 76.0859C65.9165 76.195 65.9795 76.2706 66.0719 76.3084C66.1643 76.3462 66.3028 76.3714 66.4876 76.384V76.5687C66.307 76.5561 66.0803 76.5477 65.799 76.5435C65.5176 76.5393 65.2321 76.5393 64.9424 76.5393C64.6107 76.5393 64.2958 76.5393 64.0019 76.5435C63.708 76.5477 63.4728 76.5561 63.2923 76.5687V76.384C63.4854 76.3714 63.624 76.3462 63.7164 76.3084C63.8087 76.2706 63.8717 76.1992 63.9011 76.0859C63.9305 75.9767 63.9473 75.8087 63.9473 75.5862V71.0011C63.9473 70.7744 63.9305 70.6064 63.9011 70.4973C63.8717 70.3881 63.8087 70.3167 63.7122 70.2747C63.6156 70.2328 63.477 70.2118 63.2923 70.2034V70.0186H63.2881ZM65.2237 73.3021C65.4463 73.3063 65.6562 73.3189 65.8535 73.3399C66.0509 73.3566 66.2314 73.3734 66.3994 73.3902C66.5673 73.407 66.7059 73.4154 66.8235 73.4238C67.4827 73.4532 67.9781 73.5708 68.3098 73.7681C68.6415 73.9655 68.8431 74.2552 68.9145 74.6373L69.1076 75.5988C69.158 75.8255 69.2126 75.9851 69.2756 76.0691C69.3385 76.1572 69.4225 76.1992 69.5275 76.1992C69.5905 76.1992 69.6408 76.1908 69.6828 76.1698C69.7248 76.153 69.771 76.1194 69.813 76.0775L69.9348 76.1992C69.7416 76.3924 69.5359 76.5225 69.3091 76.5939C69.0824 76.6653 68.8305 76.6989 68.545 76.6989C68.1419 76.6989 67.8186 76.6275 67.575 76.4805C67.3273 76.3336 67.1762 76.0733 67.1216 75.6996L66.983 74.7758C66.9452 74.5239 66.899 74.2972 66.8445 74.0998C66.7899 73.9025 66.7143 73.7471 66.6219 73.6338C66.5295 73.5204 66.4036 73.4616 66.244 73.4616H65.2447L65.2237 73.3021Z" fill="#1B3764"/>
<path d="M75.4687 70.0186V70.2034C75.284 70.2076 75.1454 70.2328 75.0488 70.2747C74.9523 70.3167 74.8893 70.3881 74.8599 70.4973C74.8305 70.6064 74.8137 70.7744 74.8137 71.0011V75.5904C74.8137 75.8129 74.8305 75.9809 74.8641 76.0901C74.8977 76.1992 74.9607 76.2748 75.053 76.3126C75.1454 76.3504 75.284 76.3756 75.4687 76.3882V76.5729C75.2882 76.5603 75.0614 76.5519 74.7801 76.5477C74.4988 76.5435 74.2133 76.5435 73.9236 76.5435C73.5919 76.5435 73.2769 76.5435 72.983 76.5477C72.6891 76.5519 72.454 76.5603 72.2734 76.5729V76.3882C72.4666 76.3756 72.6051 76.3504 72.6975 76.3126C72.7899 76.2748 72.8529 76.2034 72.8823 76.0901C72.9117 75.9809 72.9284 75.8129 72.9284 75.5904V71.0011C72.9284 70.7744 72.9117 70.6064 72.8823 70.4973C72.8529 70.3881 72.7899 70.3167 72.6933 70.2747C72.5967 70.2328 72.4582 70.2118 72.2734 70.2034V70.0186C72.454 70.0228 72.6891 70.0312 72.983 70.0354C73.2769 70.0396 73.5877 70.0438 73.9236 70.0438C74.2133 70.0438 74.4988 70.0396 74.7801 70.0354C75.0614 70.0312 75.2882 70.0228 75.4687 70.0186ZM78.8571 70.0186V70.195C78.6472 70.2495 78.4162 70.3503 78.1601 70.5015C77.904 70.6484 77.6311 70.8878 77.3414 71.2153L75.6367 73.1509L76.3882 72.1684L78.58 75.8255C78.6598 75.9557 78.7396 76.0649 78.8193 76.1488C78.8991 76.237 79.0083 76.3168 79.1426 76.3882V76.5729C78.8823 76.5603 78.6094 76.5519 78.3155 76.5477C78.0216 76.5435 77.7444 76.5435 77.4799 76.5435C77.3372 76.5435 77.1608 76.5435 76.9509 76.5477C76.7409 76.5519 76.4764 76.5603 76.1531 76.5729V76.3882C76.4428 76.3756 76.6108 76.342 76.657 76.2874C76.7032 76.2328 76.6822 76.1278 76.5856 75.9725L75.242 73.7051C75.179 73.596 75.1244 73.512 75.074 73.4574C75.0236 73.4028 74.9775 73.3608 74.9313 73.3357C74.8851 73.3105 74.8263 73.2937 74.7507 73.2895V73.0963C75.0236 73.0837 75.2798 72.9914 75.5191 72.8234C75.7584 72.6555 76.0481 72.3783 76.3882 71.9962L76.7031 71.6435C76.9635 71.3538 77.0978 71.1019 77.1146 70.8878C77.1314 70.6736 77.0642 70.5099 76.9215 70.3881C76.7745 70.2663 76.5856 70.2034 76.3504 70.1992V70.0228C76.6108 70.027 76.8501 70.0354 77.0684 70.0396C77.2868 70.0438 77.5681 70.048 77.9166 70.048C78.2987 70.048 78.6094 70.0354 78.8571 70.0186Z" fill="#1B3764"/>
<path d="M95.2199 88.9847H0V0H95.2199V88.9847ZM0.512251 88.4725H94.7035V0.512251H0.512251V88.4725Z" fill="#1B3764"/>
<path d="M95.2077 58.3673H0.00878906V58.8922H95.2077V58.3673Z" fill="#1B3764"/>
<path d="M47.1611 49.336C39.5571 49.336 34.1995 45.5025 34.1197 45.4437C33.7754 45.1918 33.704 44.7089 33.9517 44.3646C34.2037 44.0203 34.6865 43.949 35.0308 44.1967C35.4885 44.5284 46.3507 52.2583 59.0982 44.1673C59.4593 43.9406 59.9338 44.0455 60.1647 44.4066C60.3915 44.7677 60.2865 45.2422 59.9254 45.4731C55.3613 48.3661 50.9778 49.336 47.1611 49.336Z" fill="#1B3764"/>
<path d="M34.6398 45.2214C34.3249 45.2214 34.0268 45.024 33.9134 44.7091C33.7707 44.3102 33.9764 43.8652 34.3795 43.7224L39.3256 41.9505C39.7287 41.8078 40.1696 42.0135 40.3124 42.4166C40.4551 42.8155 40.2494 43.2605 39.8463 43.4033L34.9001 45.1752C34.8162 45.2088 34.728 45.2214 34.6398 45.2214Z" fill="#1B3764"/>
<path d="M36.7608 50.9014C36.4584 50.9014 36.1729 50.725 36.0512 50.4311L33.7712 45.0273C33.6075 44.6368 33.788 44.1833 34.1827 44.0154C34.5732 43.8516 35.0267 44.0322 35.1946 44.4268L37.4746 49.8307C37.6383 50.2212 37.4578 50.6746 37.0631 50.8426C36.9623 50.8846 36.8615 50.9014 36.7608 50.9014Z" fill="#1B3764"/>
</svg>
