<svg width="24" height="7" viewBox="0 0 24 7" fill="none" xmlns="http://www.w3.org/2000/svg">
<path d="M11.9998 1.66683C13.0124 1.66683 13.8332 2.48764 13.8332 3.50016C13.8332 4.51268 13.0124 5.3335 11.9998 5.3335C10.9873 5.3335 10.1665 4.51268 10.1665 3.50016C10.1665 2.48764 10.9873 1.66683 11.9998 1.66683Z" stroke="#FFCA42" stroke-width="1.5"/>
<path d="M21.1668 1.66683C22.1794 1.66683 23.0002 2.48764 23.0002 3.50016C23.0002 4.51268 22.1794 5.3335 21.1668 5.3335C20.1543 5.3335 19.3335 4.51268 19.3335 3.50016C19.3335 2.48764 20.1543 1.66683 21.1668 1.66683Z" stroke="#FFCA42" stroke-width="1.5"/>
<path d="M2.83333 1.66683C3.84586 1.66683 4.66667 2.48764 4.66667 3.50016C4.66667 4.51268 3.84586 5.3335 2.83333 5.3335C1.82081 5.3335 1 4.51268 1 3.50016C1 2.48764 1.82081 1.66683 2.83333 1.66683Z" stroke="#FFCA42" stroke-width="1.5"/>
</svg>
