<svg width="46" height="46" viewBox="0 0 46 46" fill="none" xmlns="http://www.w3.org/2000/svg">
<rect x="0.25" y="0.5" width="45" height="45" fill="white"/>
<path d="M25.9688 24.5H23.625V31.5H20.5V24.5H17.9688V21.5938H20.5V19.4062C20.5 18.1562 20.8438 17.1979 21.5312 16.5312C22.2188 15.8438 23.1354 15.5 24.2812 15.5C24.6146 15.5 24.9688 15.5208 25.3438 15.5625C25.7188 15.5833 26.0104 15.6146 26.2188 15.6562L26.5312 15.6875V18.1562H25.2812C24.6979 18.1562 24.2708 18.3125 24 18.625C23.75 18.9167 23.625 19.2812 23.625 19.7188V21.5938H26.4062L25.9688 24.5Z" fill="#1B3764"/>
</svg>
