<svg width="46" height="46" viewBox="0 0 46 46" fill="none" xmlns="http://www.w3.org/2000/svg">
<rect x="0.25" y="0.5" width="45" height="45" fill="white"/>
<path d="M18.375 28.5H15.4688V19.1562H18.375V28.5ZM18.125 17.375C17.7917 17.7083 17.3958 17.875 16.9375 17.875C16.4792 17.875 16.0833 17.7083 15.75 17.375C15.4167 17.0417 15.25 16.6458 15.25 16.1875C15.25 15.7292 15.4167 15.3333 15.75 15C16.0833 14.6667 16.4792 14.5 16.9375 14.5C17.3958 14.5 17.7917 14.6667 18.125 15C18.4583 15.3333 18.625 15.7292 18.625 16.1875C18.625 16.6458 18.4583 17.0417 18.125 17.375ZM29.25 28.5H26.3438V23.9375C26.3438 23.5833 26.3333 23.3021 26.3125 23.0938C26.2917 22.8646 26.2396 22.6146 26.1562 22.3438C26.0729 22.0521 25.9167 21.8333 25.6875 21.6875C25.4792 21.5417 25.1979 21.4688 24.8438 21.4688C24.1562 21.4688 23.6875 21.6875 23.4375 22.125C23.2083 22.5625 23.0938 23.1458 23.0938 23.875V28.5H20.1875V19.1562H23V20.4375H23.0312C23.2396 20.0208 23.5833 19.6667 24.0625 19.375C24.5417 19.0625 25.1146 18.9062 25.7812 18.9062C26.4896 18.9062 27.0729 19.0208 27.5312 19.25C28.0104 19.4583 28.3646 19.7812 28.5938 20.2188C28.8438 20.6354 29.0104 21.0938 29.0938 21.5938C29.1979 22.0938 29.25 22.6875 29.25 23.375V28.5Z" fill="#1B3764"/>
</svg>
