<svg width="141" height="89" viewBox="0 0 141 89" fill="none" xmlns="http://www.w3.org/2000/svg">
<path d="M0 49.9366V44.8936H1.16638V48.9105H3.61046V49.9317H0V49.9366Z" fill="#1B3764"/>
<path d="M7.68575 49.9701C7.30824 49.9701 6.96462 49.8975 6.65972 49.7523C6.35481 49.6071 6.09347 49.4135 5.87084 49.1716C5.64821 48.9296 5.48366 48.6537 5.36266 48.3488C5.24651 48.0439 5.18359 47.7293 5.18359 47.4002C5.18359 47.0663 5.24651 46.7468 5.37234 46.4419C5.49818 46.137 5.67241 45.866 5.89504 45.6289C6.11767 45.3917 6.38385 45.203 6.6936 45.0626C6.9985 44.9271 7.33728 44.8545 7.70026 44.8545C8.07293 44.8545 8.41171 44.9271 8.72145 45.0723C9.02636 45.2175 9.2877 45.4111 9.51033 45.6579C9.72812 45.9047 9.89751 46.1806 10.0185 46.4855C10.1347 46.7904 10.1976 47.1001 10.1976 47.4196C10.1976 47.7535 10.1347 48.0729 10.0137 48.3778C9.89267 48.6827 9.7136 48.9538 9.48613 49.1909C9.25867 49.4281 8.99248 49.6216 8.68757 49.7572C8.38751 49.9024 8.05357 49.9701 7.68575 49.9701ZM6.37417 47.4147C6.37417 47.6083 6.40321 47.7971 6.46129 47.981C6.51937 48.1649 6.60164 48.3246 6.71296 48.4649C6.82427 48.6053 6.96462 48.7215 7.12917 48.8037C7.29373 48.8908 7.48248 48.9296 7.69542 48.9296C7.91805 48.9296 8.11164 48.886 8.2762 48.7989C8.44075 48.7118 8.5811 48.5956 8.68757 48.4456C8.79405 48.2956 8.87632 48.1358 8.9344 47.9519C8.98764 47.768 9.01668 47.5841 9.01668 47.3954C9.01668 47.2018 8.98764 47.013 8.92956 46.8339C8.87149 46.6549 8.78921 46.4903 8.67305 46.35C8.5569 46.2096 8.42139 46.0935 8.252 46.0112C8.08744 45.9289 7.89869 45.8902 7.69059 45.8902C7.46796 45.8902 7.27437 45.9338 7.10981 46.016C6.94526 46.1031 6.80975 46.2145 6.69844 46.3597C6.58712 46.5048 6.50485 46.6694 6.45161 46.8485C6.40321 47.0372 6.37417 47.226 6.37417 47.4147Z" fill="#1B3764"/>
<path d="M15.2888 46.379C15.2743 46.3548 15.2259 46.3161 15.1388 46.2677C15.0517 46.2193 14.9452 46.1661 14.8194 46.108C14.6935 46.0499 14.5532 46.0015 14.3983 45.958C14.2483 45.9144 14.0934 45.895 13.9434 45.895C13.745 45.895 13.5901 45.9289 13.4836 45.9967C13.3723 46.0644 13.3191 46.1709 13.3191 46.3113C13.3191 46.4226 13.3626 46.5145 13.4449 46.5774C13.5272 46.6452 13.6482 46.6984 13.803 46.7517C13.9579 46.8001 14.1515 46.8581 14.379 46.9259C14.7032 47.0082 14.9791 47.1147 15.2162 47.2308C15.4534 47.3518 15.6325 47.5067 15.7583 47.6906C15.8841 47.8745 15.947 48.1262 15.947 48.4359C15.947 48.7166 15.8938 48.9586 15.7922 49.1522C15.6905 49.3458 15.5453 49.5055 15.3711 49.6265C15.192 49.7475 14.9936 49.8346 14.7661 49.8878C14.5387 49.9411 14.3064 49.9701 14.0644 49.9701C13.8175 49.9701 13.5659 49.9459 13.3094 49.8975C13.0529 49.8491 12.806 49.7765 12.5689 49.6846C12.3317 49.5926 12.114 49.4813 11.9155 49.3458L12.4285 48.3294C12.4479 48.3536 12.5108 48.3972 12.6125 48.4601C12.7141 48.523 12.8448 48.5908 12.9996 48.6585C13.1545 48.7263 13.3239 48.7892 13.5126 48.8376C13.7014 48.8908 13.895 48.915 14.0886 48.915C14.2967 48.915 14.4516 48.8812 14.5532 48.8183C14.6548 48.7553 14.7081 48.6634 14.7081 48.5472C14.7081 48.4214 14.6548 48.3198 14.5484 48.252C14.4419 48.1794 14.2967 48.1165 14.1176 48.0632C13.9337 48.0052 13.7256 47.9423 13.4884 47.8745C13.1787 47.7825 12.927 47.6761 12.7238 47.5551C12.5205 47.4389 12.3753 47.2937 12.2785 47.1243C12.1817 46.9549 12.1333 46.742 12.1333 46.4903C12.1333 46.137 12.2156 45.8418 12.385 45.595C12.5544 45.353 12.777 45.1691 13.0625 45.0432C13.3481 44.9174 13.6578 44.8545 13.9918 44.8545C14.2289 44.8545 14.4564 44.8835 14.679 44.9416C14.9017 44.9997 15.1049 45.0674 15.2985 45.1546C15.4921 45.2417 15.6615 45.3239 15.8115 45.4111L15.2888 46.379Z" fill="#1B3764"/>
<path d="M125.146 46.0365V48.921H123.98V43.8779H124.904L127.242 46.8447V43.8779H128.408V48.9161H127.46L125.146 46.0365Z" fill="#1B3764"/>
<path d="M131.569 43.8779L132.653 46.1091L133.752 43.8779H135.029L133.234 47.198V48.9161H132.077V47.1883L130.311 43.8828H131.569V43.8779Z" fill="#1B3764"/>
<path d="M136.297 46.3506C136.297 46.0409 136.355 45.7408 136.466 45.4456C136.578 45.1504 136.747 44.8793 136.965 44.6422C137.183 44.4002 137.449 44.2066 137.758 44.0614C138.073 43.9162 138.426 43.8436 138.823 43.8436C139.298 43.8436 139.709 43.9453 140.053 44.1485C140.396 44.3518 140.657 44.618 140.832 44.9423L139.936 45.5666C139.859 45.3875 139.762 45.2472 139.636 45.1455C139.51 45.0439 139.375 44.9761 139.225 44.9374C139.075 44.8987 138.935 44.8793 138.794 44.8793C138.572 44.8793 138.378 44.9229 138.213 45.01C138.049 45.0971 137.909 45.2133 137.802 45.3633C137.691 45.5085 137.613 45.6731 137.56 45.8521C137.507 46.0312 137.483 46.2103 137.483 46.3893C137.483 46.5878 137.512 46.7814 137.575 46.9653C137.637 47.1492 137.725 47.3137 137.841 47.4541C137.957 47.5944 138.097 47.7106 138.262 47.7929C138.426 47.8751 138.61 47.9187 138.809 47.9187C138.949 47.9187 139.094 47.8945 139.244 47.8461C139.389 47.7977 139.525 47.7251 139.651 47.6235C139.777 47.5218 139.873 47.3863 139.936 47.2218L140.89 47.7832C140.788 48.03 140.628 48.2381 140.401 48.4172C140.174 48.5914 139.917 48.7269 139.631 48.8189C139.346 48.9109 139.06 48.9592 138.785 48.9592C138.422 48.9592 138.088 48.8866 137.778 48.7366C137.468 48.5866 137.212 48.3882 136.989 48.1413C136.766 47.8945 136.597 47.6138 136.476 47.3041C136.36 46.9895 136.297 46.67 136.297 46.3506Z" fill="#1B3764"/>
<path d="M66.4548 6.10352e-05V0.425959C66.0289 0.440478 65.7047 0.493716 65.4821 0.585671C65.2594 0.677626 65.1142 0.847018 65.0465 1.09868C64.9739 1.34551 64.94 1.73753 64.94 2.26023V12.8399C64.94 13.3529 64.9787 13.7353 65.0562 13.9918C65.1336 14.2483 65.2788 14.4177 65.4917 14.5048C65.7047 14.5919 66.0241 14.6452 66.45 14.6742V15.1001C66.0096 15.071 65.4482 15.0517 64.7658 15.0469C64.0834 15.042 63.3864 15.0372 62.675 15.0372C61.9055 15.0372 61.1844 15.042 60.5116 15.0469C59.8341 15.0565 59.292 15.071 58.8806 15.1001V14.6742C59.3646 14.6452 59.7324 14.5871 59.9793 14.5048C60.2261 14.4177 60.3955 14.2483 60.4826 13.9918C60.5697 13.7353 60.6084 13.3529 60.6084 12.8399V1.42779L60.8214 1.38423L55.4686 15.0807H55.125L49.1092 1.38423V10.9185C49.1092 11.872 49.1479 12.6028 49.2253 13.1061C49.3028 13.6094 49.4964 13.9724 49.8013 14.1951C50.1062 14.4177 50.595 14.5774 51.2629 14.6742V15.1001C50.9773 15.071 50.6095 15.0517 50.1546 15.0469C49.6996 15.042 49.2737 15.0372 48.8769 15.0372C48.5623 15.0372 48.2429 15.042 47.9186 15.0469C47.5895 15.0565 47.3233 15.071 47.1104 15.1001V14.6742C47.5508 14.5726 47.8799 14.4225 48.0928 14.2144C48.3058 14.0063 48.4461 13.6772 48.5187 13.2223C48.5913 12.7673 48.6252 12.143 48.6252 11.3444V2.26023C48.6252 1.73269 48.5913 1.34551 48.5187 1.09868C48.4461 0.851857 48.3009 0.677626 48.0831 0.585671C47.8605 0.493716 47.5411 0.440478 47.1104 0.425959V6.10352e-05C47.3233 0.0145803 47.5943 0.0290996 47.9186 0.0436188C48.2477 0.0581381 48.5671 0.0629778 48.8769 0.0629778C49.6996 0.0629778 50.4885 0.0581381 51.2435 0.0436188C51.9985 0.0290996 52.6809 0.0145803 53.2907 6.10352e-05L57.5158 9.51501L56.877 10.2168L60.8214 0.0629778C61.1069 0.0629778 61.4118 0.0629778 61.7409 0.0629778C62.07 0.0629778 62.3798 0.0629778 62.6798 0.0629778C63.3913 0.0629778 64.0882 0.0581381 64.7706 0.0436188C65.453 0.0290996 66.0144 0.0145803 66.4548 6.10352e-05Z" fill="#1B3764"/>
<path d="M90.2371 6.10352e-05C90.179 0.711505 90.1403 1.39875 90.121 2.05696C90.1016 2.72 90.0871 3.22818 90.0871 3.58148C90.0871 3.88154 90.0919 4.16709 90.1064 4.43327C90.121 4.7043 90.1355 4.93177 90.15 5.11568H89.6612C89.4918 3.93478 89.2062 3.00555 88.8094 2.33282C88.4125 1.65526 87.9431 1.18096 87.4107 0.905095C86.8783 0.629229 86.3169 0.488876 85.7361 0.488876H85.4603C85.0925 0.488876 84.8118 0.522754 84.6278 0.585671C84.4439 0.648588 84.3181 0.774421 84.2552 0.958332C84.1923 1.14224 84.1584 1.43263 84.1584 1.83433V13.2707C84.1584 13.653 84.1923 13.9434 84.2552 14.137C84.3181 14.3306 84.4439 14.4564 84.6278 14.5193C84.8118 14.5822 85.0876 14.6161 85.4603 14.6161H86.1669C86.6363 14.6161 87.13 14.4612 87.6479 14.1563C88.1657 13.8514 88.6448 13.3287 89.0853 12.5883C89.5257 11.8478 89.8596 10.8411 90.0871 9.55857H90.5759C90.5323 10.0716 90.513 10.725 90.513 11.5235C90.513 11.8768 90.5178 12.3898 90.5323 13.048C90.5469 13.7111 90.5904 14.3935 90.6582 15.1049C89.9322 15.0759 89.1143 15.0565 88.2044 15.0517C87.2945 15.0469 86.4815 15.042 85.77 15.042C85.257 15.042 84.5698 15.042 83.7131 15.042C82.8517 15.042 81.9418 15.0469 80.9835 15.0517C80.0252 15.0614 79.1299 15.0759 78.3071 15.1049V14.679C78.7475 14.65 79.0766 14.5919 79.2896 14.5096C79.5025 14.4274 79.6429 14.2531 79.7155 13.9966C79.7881 13.7401 79.822 13.3578 79.822 12.8448V2.26023C79.822 1.73269 79.7881 1.34551 79.7155 1.09868C79.6429 0.851857 79.4977 0.677626 79.2799 0.585671C79.0573 0.493716 78.7379 0.440478 78.312 0.425959V6.10352e-05C79.1347 0.0145803 80.0301 0.0290996 80.9883 0.0436188C81.9466 0.0581381 82.8565 0.0629778 83.718 0.0629778C84.5794 0.0629778 85.2667 0.0629778 85.7749 0.0629778C86.4282 0.0629778 87.1736 0.0581381 88.006 0.0532983C88.8433 0.0484586 89.5837 0.0290995 90.2371 6.10352e-05ZM87.1445 7.29357V7.71947H83.5195V7.29357H87.1445ZM87.764 4.48167C87.7059 5.28991 87.6817 5.9094 87.6914 6.3353C87.6962 6.76119 87.7011 7.15321 87.7011 7.50652C87.7011 7.85982 87.7059 8.25184 87.7204 8.67774C87.735 9.10363 87.7688 9.72312 87.8269 10.5314H87.3381C87.251 10.0038 87.0768 9.52953 86.8154 9.10363C86.5541 8.67774 86.2153 8.33895 85.8039 8.09213C85.3925 7.8453 84.9134 7.71947 84.3762 7.71947V7.29357C84.9182 7.29357 85.3877 7.14354 85.7845 6.84347C86.1814 6.54341 86.5105 6.18042 86.767 5.74485C87.0235 5.30927 87.1929 4.88821 87.28 4.47683H87.764V4.48167Z" fill="#1B3764"/>
<path d="M44.4918 36.2063C45.4888 36.2063 46.3067 36.3418 46.9456 36.6128C47.5844 36.8839 48.1459 37.2081 48.6298 37.5953C48.7847 37.7211 48.9299 37.7889 49.0557 37.7889C49.3268 37.7889 49.501 37.363 49.5881 36.5112H50.0769C50.0479 37.0823 50.0285 37.7744 50.014 38.5923C49.9995 39.4102 49.9946 40.4943 49.9946 41.8446H49.5058C49.4042 40.8186 49.23 39.9619 48.9831 39.2747C48.7363 38.5875 48.2523 37.997 47.5409 37.513C47.2408 37.3146 46.8924 37.1597 46.4955 37.0436C46.0986 36.9323 45.7115 36.8742 45.3436 36.8742C44.516 36.8742 43.8336 37.0968 43.2964 37.5469C42.7544 37.997 42.3236 38.5778 42.0042 39.2941C41.6848 40.0103 41.4573 40.7944 41.3218 41.6413C41.1863 42.4883 41.1185 43.3111 41.1185 44.1048C41.1185 46.665 41.4331 48.5331 42.0574 49.714C42.6818 50.8949 43.5142 51.4854 44.5548 51.4854C44.7822 51.4854 44.9807 51.466 45.15 51.4225C45.3194 51.3789 45.4695 51.316 45.6001 51.2289C45.755 51.1176 45.8712 50.9724 45.9438 50.803C46.0164 50.6336 46.0502 50.4207 46.0502 50.1641V48.0298C46.0502 47.3329 45.997 46.815 45.8905 46.4714C45.7841 46.1278 45.5759 45.8955 45.2614 45.7696C44.9468 45.6438 44.4918 45.5712 43.8966 45.5567V45.1308C44.2257 45.1453 44.6225 45.155 45.092 45.1647C45.5614 45.1744 46.0502 45.1792 46.5633 45.184C47.0763 45.1937 47.5457 45.1937 47.9716 45.1937C48.654 45.1937 49.2832 45.1889 49.8591 45.1744C50.4351 45.1598 50.8997 45.1453 51.2578 45.1308V45.5567C50.8997 45.5857 50.6674 45.6971 50.5512 45.9003C50.4351 46.0988 50.3818 46.5972 50.3818 47.3958V51.6209H49.9559C49.9414 51.3789 49.8833 51.1176 49.7865 50.832C49.6849 50.5465 49.5252 50.4061 49.2977 50.4061C49.1816 50.4061 49.0219 50.4352 48.8186 50.4932C48.6105 50.5513 48.2862 50.6868 47.8458 50.8998C47.2892 51.1708 46.7036 51.408 46.0841 51.6161C45.4646 51.8242 44.85 51.9258 44.2402 51.9258C41.5638 51.9258 39.5601 51.2483 38.2244 49.8883C36.8886 48.5283 36.2207 46.636 36.2207 44.2016C36.2207 42.6093 36.574 41.2154 37.2758 40.02C37.9824 38.8246 38.9552 37.8954 40.199 37.2275C41.438 36.5402 42.8705 36.2063 44.4918 36.2063Z" fill="#1B3764"/>
<path d="M70.4761 36.5058L75.6401 49.8151C75.8386 50.2991 76.0515 50.6427 76.279 50.8508C76.5065 51.059 76.7146 51.1654 76.8985 51.1799V51.6058C76.3855 51.5768 75.7902 51.5574 75.1078 51.5526C74.4254 51.5478 73.7284 51.5429 73.017 51.5429C72.291 51.5429 71.6086 51.5478 70.9698 51.5526C70.3309 51.5623 69.8179 51.5768 69.4356 51.6058V51.1799C70.1615 51.1509 70.6213 51.0251 70.8101 50.8073C71.0037 50.5847 70.9553 50.1152 70.6697 49.3892L67.2577 39.9372L67.6836 39.1919L64.741 46.8484C64.2716 48.0728 64.0393 48.9875 64.0489 49.6022C64.0538 50.212 64.2377 50.6234 64.591 50.8266C64.9443 51.0348 65.4089 51.1509 65.9752 51.1799V51.6058C65.4476 51.5768 64.9782 51.5574 64.5571 51.5526C64.1361 51.5478 63.6811 51.5429 63.1826 51.5429C62.9116 51.5429 62.6261 51.5478 62.3163 51.5526C62.0114 51.5623 61.7501 51.5768 61.5371 51.6058V51.1799C61.8662 51.1219 62.1856 50.9138 62.5099 50.5508C62.8293 50.1878 63.1584 49.5683 63.5021 48.6826L68.2402 36.501C68.5838 36.53 68.9564 36.5445 69.3581 36.5445C69.7598 36.5494 70.1325 36.5349 70.4761 36.5058ZM71.2215 45.4642V45.8901H64.862L65.075 45.4642H71.2215Z" fill="#1B3764"/>
<path d="M102.09 36.5059V36.9318C101.664 37.0189 101.339 37.1641 101.117 37.3819C100.894 37.5948 100.749 37.9239 100.681 38.374C100.609 38.8241 100.575 39.4533 100.575 40.2615V51.6107C100.362 51.5817 100.13 51.5672 99.8827 51.5672C99.6359 51.5672 99.3649 51.5817 99.0841 51.6107L89.6321 41.2827V47.4292C89.6321 48.3826 89.6708 49.1134 89.7483 49.6167C89.8257 50.1201 90.0193 50.4831 90.3242 50.7057C90.6291 50.9283 91.1179 51.088 91.7858 51.1848V51.6107C91.5003 51.5817 91.1324 51.5623 90.6775 51.5575C90.2226 51.5526 89.7967 51.5478 89.3998 51.5478C89.0852 51.5478 88.7658 51.5526 88.4415 51.5575C88.1124 51.5672 87.8462 51.5817 87.6333 51.6107V51.1848C88.0737 51.0832 88.4028 50.9332 88.6158 50.725C88.8287 50.5169 88.9691 50.1878 89.0417 49.7329C89.1143 49.278 89.1481 48.6536 89.1481 47.8551V38.766C89.1481 38.2385 89.1143 37.8513 89.0417 37.6045C88.9691 37.3577 88.8239 37.1834 88.6061 37.0915C88.3835 36.9995 88.064 36.9463 87.6333 36.9318V36.5059C87.8462 36.5204 88.1173 36.5349 88.4415 36.5494C88.7706 36.5639 89.0901 36.5688 89.3998 36.5688C89.7531 36.5688 90.1064 36.5639 90.4452 36.5494C90.7888 36.5349 91.0937 36.5204 91.3647 36.5059L100.091 45.7207V40.6874C100.091 39.734 100.052 39.008 99.9747 38.4998C99.8972 37.9965 99.7085 37.6287 99.4084 37.4012C99.1083 37.1737 98.6195 37.0189 97.9371 36.9318V36.5059C98.2227 36.5204 98.5905 36.5349 99.0454 36.5494C99.5004 36.5639 99.9263 36.5688 100.323 36.5688C100.652 36.5688 100.972 36.5639 101.291 36.5494C101.61 36.5349 101.877 36.5204 102.09 36.5059Z" fill="#1B3764"/>
<path d="M47.3084 84.749C47.9763 84.749 48.4941 84.9039 48.8668 85.2088C49.2346 85.5137 49.4233 85.9735 49.4233 86.5833C49.4233 87.1931 49.2394 87.6529 48.8668 87.9578C48.499 88.2627 47.9763 88.4176 47.3084 88.4176C46.626 88.4176 46.1033 88.2627 45.7403 87.9578C45.3773 87.6529 45.1982 87.1931 45.1982 86.5833C45.1982 85.9735 45.3773 85.5137 45.7403 85.2088C46.1033 84.8991 46.626 84.749 47.3084 84.749Z" fill="#1B3764"/>
<path d="M68.9374 73.0126V73.4385C68.5115 73.453 68.1873 73.5062 67.9646 73.5982C67.742 73.6901 67.5968 73.8595 67.5291 74.1112C67.4565 74.358 67.4226 74.75 67.4226 75.2727V85.8524C67.4226 86.3654 67.4613 86.7478 67.5387 87.0043C67.6162 87.2608 67.7614 87.4302 67.9743 87.5173C68.1873 87.6044 68.5067 87.6577 68.9326 87.6867V88.1126C68.5212 88.0836 67.9888 88.0642 67.3452 88.0594C66.6966 88.0545 66.0384 88.0497 65.3705 88.0497C64.601 88.0497 63.8799 88.0545 63.2072 88.0594C62.5296 88.069 61.9876 88.0836 61.5762 88.1126V87.6867C62.0166 87.6577 62.3457 87.5996 62.5586 87.5173C62.7716 87.435 62.9119 87.2608 62.9845 87.0043C63.0571 86.7478 63.091 86.3654 63.091 85.8524V75.2727C63.091 74.7452 63.0571 74.358 62.9845 74.1112C62.9119 73.8644 62.7668 73.6901 62.549 73.5982C62.3263 73.5062 62.0069 73.453 61.581 73.4385V73.0126C61.9924 73.0271 62.5393 73.0416 63.212 73.0561C63.8896 73.0706 64.6107 73.0755 65.3754 73.0755C66.0433 73.0755 66.7015 73.0706 67.35 73.0561C67.9985 73.0416 68.5261 73.0271 68.9374 73.0126ZM76.744 73.0126V73.4191C76.26 73.5449 75.7228 73.7821 75.1323 74.1209C74.5419 74.4645 73.9127 75.0114 73.2448 75.7615L69.3198 80.219L71.0476 77.9588L76.1051 86.3848C76.289 86.6849 76.4729 86.9317 76.6617 87.1301C76.8456 87.3286 77.0973 87.5125 77.407 87.6867V88.1126C76.8117 88.0836 76.1729 88.0642 75.5001 88.0594C74.8226 88.0545 74.1789 88.0497 73.5691 88.0497C73.24 88.0497 72.8383 88.0545 72.3543 88.0594C71.8703 88.069 71.2605 88.0836 70.52 88.1126V87.6867C71.1879 87.6577 71.5751 87.5802 71.6816 87.4544C71.788 87.3286 71.7348 87.0866 71.5219 86.7284L68.4293 81.5015C68.2889 81.245 68.1582 81.0514 68.0469 80.9256C67.9308 80.7997 67.8243 80.7029 67.7178 80.6497C67.6113 80.5916 67.471 80.5577 67.3016 80.5432V80.0931C67.9259 80.0641 68.5164 79.856 69.0729 79.464C69.6295 79.0719 70.2974 78.4379 71.0766 77.5571L71.8026 76.744C72.3979 76.0761 72.7173 75.4954 72.7512 75.0065C72.785 74.5177 72.635 74.1306 72.3011 73.8547C71.9671 73.5788 71.5315 73.4336 70.9895 73.4191V73.0126C71.5848 73.0271 72.1365 73.0416 72.6447 73.0561C73.148 73.0706 73.8014 73.0755 74.5951 73.0755C75.4614 73.0803 76.1777 73.0561 76.744 73.0126Z" fill="#1B3764"/>
<path d="M90.7405 84.749C91.4084 84.749 91.9262 84.9039 92.2989 85.2088C92.6667 85.5137 92.8555 85.9735 92.8555 86.5833C92.8555 87.1931 92.6716 87.6529 92.2989 87.9578C91.9311 88.2627 91.4084 88.4176 90.7405 88.4176C90.0581 88.4176 89.5354 88.2627 89.1724 87.9578C88.8094 87.6529 88.6304 87.1931 88.6304 86.5833C88.6304 85.9735 88.8094 85.5137 89.1724 85.2088C89.5354 84.8991 90.0581 84.749 90.7405 84.749Z" fill="#1B3764"/>
<path d="M36.7634 11.5642L10.8613 34.9337L11.834 36.0117L37.736 12.6423L36.7634 11.5642Z" fill="#1B3764"/>
<path d="M101.738 11.5613L100.765 12.6395L126.671 36.0055L127.643 34.9273L101.738 11.5613Z" fill="#1B3764"/>
<path d="M12.3416 57.787L11.3691 58.8652L37.2747 82.2312L38.2472 81.153L12.3416 57.787Z" fill="#1B3764"/>
<path d="M127.177 57.7829L101.275 81.1523L102.248 82.2304L128.15 58.861L127.177 57.7829Z" fill="#1B3764"/>
</svg>
