<svg width="189" height="76" viewBox="0 0 189 76" fill="none" xmlns="http://www.w3.org/2000/svg">
<path d="M16.073 30.1516V30.505C15.7196 30.5151 15.4521 30.5605 15.2653 30.6362C15.0836 30.7119 14.9624 30.8533 14.9018 31.0603C14.8412 31.2672 14.811 31.5903 14.811 32.0244V40.8131C14.811 41.2371 14.8412 41.5551 14.9069 41.7722C14.9725 41.9842 15.0936 42.1256 15.2703 42.1962C15.447 42.2669 15.7146 42.3123 16.0679 42.3376V42.6909C15.6994 42.6657 15.235 42.6506 14.6696 42.6455C14.1042 42.6405 13.5237 42.6354 12.9331 42.6354C12.297 42.6354 11.6963 42.6405 11.136 42.6455C10.5757 42.6506 10.1213 42.6657 9.77806 42.6909V42.3376C10.1819 42.3123 10.4848 42.2669 10.6918 42.1962C10.8987 42.1256 11.035 41.9842 11.1107 41.7722C11.1814 41.5602 11.2168 41.2422 11.2168 40.8131V31.3379L11.3934 31.3026L6.94611 42.6809H6.66342L1.66585 31.3026V39.228C1.66585 40.0205 1.69614 40.6263 1.76177 41.0453C1.82739 41.4643 1.98388 41.7672 2.24133 41.9489C2.49373 42.1306 2.89758 42.2669 3.45286 42.3477V42.701C3.2156 42.6758 2.90767 42.6607 2.52907 42.6556C2.15047 42.6506 1.7971 42.6455 1.46393 42.6455C1.20143 42.6455 0.938936 42.6506 0.666342 42.6556C0.403843 42.6607 0.176682 42.6758 0 42.701V42.3477C0.368507 42.2669 0.636053 42.1357 0.812735 41.9691C0.989416 41.7974 1.10552 41.5249 1.1661 41.1462C1.22667 40.7676 1.25696 40.2477 1.25696 39.5864V32.0295C1.25696 31.5903 1.22667 31.2723 1.1661 31.0653C1.10552 30.8583 0.984368 30.717 0.802639 30.6413C0.620909 30.5655 0.353363 30.5201 0 30.505V30.1516C0.176682 30.1617 0.403843 30.1769 0.67139 30.1869C0.943984 30.197 1.20648 30.2071 1.46898 30.2071C2.15551 30.2071 2.81176 30.2021 3.43772 30.1869C4.06367 30.1769 4.62906 30.1617 5.13891 30.1516L8.6473 38.0568L8.11725 38.6424L11.3934 30.2071C11.6307 30.2071 11.8831 30.2071 12.1557 30.2071C12.4283 30.2071 12.6857 30.2071 12.9331 30.2071C13.5237 30.2071 14.1042 30.2021 14.6696 30.1869C15.24 30.1769 15.7095 30.1617 16.073 30.1516Z" fill="#1B3764"/>
<path d="M28.7436 30.1516C28.6982 30.7422 28.6628 31.3127 28.6477 31.8629C28.6275 32.4131 28.6225 32.8372 28.6225 33.13C28.6225 33.3773 28.6275 33.6146 28.6376 33.8367C28.6477 34.0638 28.6628 34.2506 28.6729 34.4021H28.2691C28.1278 33.4227 27.8905 32.6504 27.5624 32.0901C27.2292 31.5297 26.8456 31.1309 26.4013 30.9038C25.9571 30.6716 25.4927 30.5605 25.0081 30.5605H24.7759C24.4679 30.5605 24.2408 30.5857 24.0843 30.6413C23.9328 30.6918 23.8268 30.7978 23.7763 30.9492C23.7259 31.1006 23.6956 31.3429 23.6956 31.6761V41.1765C23.6956 41.4946 23.7208 41.7369 23.7763 41.8934C23.8319 42.0549 23.9328 42.1609 24.0843 42.2114C24.2357 42.2669 24.4679 42.2922 24.7759 42.2922H25.3614C25.7501 42.2922 26.1641 42.1659 26.5932 41.9135C27.0222 41.6611 27.421 41.227 27.7895 40.6112C28.158 39.9953 28.4357 39.1573 28.6225 38.0922H29.0314C28.996 38.5162 28.9809 39.0614 28.9809 39.7227C28.9809 40.0205 28.9859 40.4395 28.996 40.9898C29.0061 41.54 29.0415 42.1104 29.102 42.701C28.5013 42.6758 27.8198 42.6607 27.0626 42.6556C26.3054 42.6506 25.634 42.6455 25.0434 42.6455C24.6194 42.6455 24.0489 42.6455 23.3321 42.6455C22.6153 42.6455 21.8631 42.6506 21.0655 42.6556C20.268 42.6607 19.5259 42.6758 18.8394 42.701V42.3477C19.2079 42.3224 19.4754 42.277 19.6571 42.2063C19.8338 42.1357 19.9499 41.9943 20.0105 41.7823C20.0711 41.5703 20.1014 41.2523 20.1014 40.8232V32.0295C20.1014 31.5903 20.0711 31.2723 20.0105 31.0653C19.9499 30.8583 19.8288 30.717 19.647 30.6413C19.4653 30.5655 19.1927 30.5201 18.8394 30.51V30.1567C19.5259 30.1668 20.268 30.1819 21.0655 30.192C21.8631 30.2021 22.6203 30.2122 23.3321 30.2122C24.0489 30.2122 24.6143 30.2122 25.0434 30.2122C25.5886 30.2122 26.2045 30.2071 26.896 30.2021C27.5826 30.192 28.2035 30.1769 28.7436 30.1516ZM26.1742 36.2143V36.5677H23.1605V36.2143H26.1742ZM26.6891 33.872C26.6436 34.5434 26.6184 35.0583 26.6285 35.4117C26.6335 35.765 26.6386 36.0932 26.6386 36.3859C26.6386 36.6838 26.6436 37.0069 26.6588 37.3602C26.6689 37.7136 26.6992 38.2285 26.7496 38.8999H26.3407C26.2701 38.4607 26.1237 38.0669 25.9066 37.7136C25.6895 37.3602 25.4069 37.0775 25.0636 36.8706C24.7203 36.6636 24.3266 36.5626 23.8773 36.5626V36.2093C24.3266 36.2093 24.7153 36.0831 25.0484 35.8357C25.3766 35.5884 25.6492 35.2855 25.8612 34.922C26.0732 34.5636 26.2145 34.2102 26.2852 33.867H26.6891V33.872Z" fill="#1B3764"/>
<path d="M39.1476 29.9044C39.9755 29.9044 40.6519 30.0155 41.187 30.2426C41.717 30.4648 42.1865 30.7373 42.5853 31.0554C42.7165 31.1614 42.8326 31.2169 42.9387 31.2169C43.1608 31.2169 43.3122 30.8635 43.3829 30.1518H43.7918C43.7665 30.6263 43.7514 31.2018 43.7362 31.8782C43.7261 32.5597 43.7161 33.4582 43.7161 34.5789H43.3122C43.2314 33.7258 43.085 33.0191 42.8781 32.4436C42.6711 31.8732 42.2723 31.3835 41.6817 30.9797C41.4343 30.8131 41.1416 30.6869 40.8134 30.591C40.4803 30.495 40.1622 30.4496 39.8543 30.4496C39.1678 30.4496 38.6024 30.6364 38.1531 31.0099C37.7038 31.3835 37.3454 31.8681 37.0829 32.4638C36.8154 33.0594 36.6286 33.7106 36.5175 34.4123C36.4014 35.119 36.3459 35.8005 36.3459 36.4618C36.3459 38.5871 36.6034 40.1418 37.1233 41.1212C37.6433 42.1005 38.3348 42.5902 39.1981 42.5902C39.3848 42.5902 39.5514 42.57 39.6928 42.5346C39.8341 42.4993 39.9603 42.4488 40.0663 42.3731C40.1976 42.2772 40.2884 42.1611 40.349 42.0197C40.4096 41.8784 40.4399 41.7017 40.4399 41.4897V39.7178C40.4399 39.1373 40.3944 38.7082 40.3086 38.4255C40.2178 38.1428 40.0461 37.946 39.7836 37.8399C39.5211 37.7339 39.1476 37.6734 38.6478 37.6633V37.3099C38.9204 37.32 39.2485 37.3301 39.6423 37.3351C40.031 37.3402 40.4399 37.3452 40.8639 37.3553C41.2879 37.3604 41.6817 37.3654 42.0351 37.3654C42.6004 37.3654 43.1254 37.3604 43.605 37.3452C44.0846 37.3351 44.4682 37.32 44.766 37.3099V37.6633C44.4733 37.6885 44.2764 37.7794 44.1805 37.946C44.0846 38.1125 44.0391 38.5265 44.0391 39.1878V42.6962H43.6858C43.6757 42.4942 43.6252 42.2772 43.5444 42.0399C43.4637 41.8027 43.3274 41.6866 43.1355 41.6866C43.0396 41.6866 42.9084 41.7118 42.7367 41.7572C42.5651 41.8027 42.2976 41.9188 41.929 42.0954C41.4697 42.3176 40.98 42.5195 40.4651 42.6911C39.9502 42.8627 39.4404 42.9486 38.9305 42.9486C36.7094 42.9486 35.0435 42.3832 33.9329 41.2575C32.8224 40.1318 32.2671 38.5568 32.2671 36.5325C32.2671 35.2099 32.5599 34.0489 33.1455 33.0594C33.731 32.065 34.5387 31.2926 35.5736 30.7373C36.6084 30.1821 37.7997 29.9044 39.1476 29.9044Z" fill="#1B3764"/>
<path d="M53.6457 30.1516L57.9366 41.2119C58.1031 41.6157 58.2798 41.8984 58.4666 42.07C58.6534 42.2417 58.825 42.3325 58.9815 42.3426V42.696C58.5575 42.6708 58.0577 42.6556 57.4923 42.6506C56.9269 42.6455 56.3464 42.6405 55.7558 42.6405C55.1551 42.6405 54.5847 42.6455 54.0546 42.6506C53.5246 42.6556 53.0955 42.6708 52.7775 42.696V42.3426C53.3782 42.3174 53.7618 42.2164 53.9183 42.0347C54.0799 41.853 54.0395 41.4592 53.8022 40.8585L50.9652 33.0088L51.3186 32.3879L48.8753 38.7484C48.4866 39.7631 48.2948 40.5253 48.2998 41.0352C48.3049 41.545 48.4563 41.8833 48.7542 42.0549C49.047 42.2265 49.4357 42.3224 49.9051 42.3477V42.701C49.4659 42.6758 49.0772 42.6607 48.7289 42.6556C48.3806 42.6506 47.997 42.6455 47.5881 42.6455C47.366 42.6455 47.1236 42.6506 46.8712 42.6556C46.6188 42.6607 46.4018 42.6758 46.2251 42.701V42.3477C46.4977 42.3022 46.7652 42.1256 47.0328 41.8227C47.3003 41.5198 47.5729 41.0049 47.8556 40.2729L51.788 30.1516C52.0707 30.1769 52.3837 30.1869 52.7169 30.1869C53.0501 30.1869 53.363 30.1769 53.6457 30.1516ZM54.2666 37.5975V37.9508H48.9864L49.1631 37.5975H54.2666Z" fill="#1B3764"/>
<path d="M72.8181 30.1516V30.505C72.4647 30.5756 72.1971 30.7018 72.0104 30.8785C71.8286 31.0552 71.7075 31.3329 71.6469 31.7014C71.5863 32.0749 71.5561 32.5949 71.5561 33.2713V42.701C71.3794 42.6758 71.1875 42.6657 70.9806 42.6657C70.7736 42.6657 70.5515 42.6758 70.3142 42.701L62.4645 34.1244V39.228C62.4645 40.0205 62.4948 40.6263 62.5604 41.0453C62.6261 41.4643 62.7826 41.7672 63.04 41.9489C63.2924 42.1306 63.6962 42.2669 64.2515 42.3477V42.701C64.0143 42.6758 63.7063 42.6607 63.3277 42.6556C62.9491 42.6506 62.5958 42.6455 62.2626 42.6455C62.0001 42.6455 61.7376 42.6506 61.465 42.6556C61.1924 42.6607 60.9703 42.6758 60.7936 42.701V42.3477C61.1621 42.2669 61.4297 42.1357 61.6064 41.9691C61.783 41.7974 61.8991 41.5249 61.9597 41.1462C62.0203 40.7676 62.0506 40.2477 62.0506 39.5864V32.0295C62.0506 31.5903 62.0203 31.2723 61.9597 31.0653C61.8991 30.8583 61.778 30.717 61.5963 30.6413C61.4145 30.5655 61.1419 30.5201 60.7886 30.51V30.1567C60.9653 30.1668 61.1924 30.1819 61.46 30.192C61.7326 30.2021 61.9951 30.2122 62.2576 30.2122C62.5503 30.2122 62.8431 30.2071 63.1258 30.192C63.4085 30.1819 63.6609 30.1668 63.8881 30.1567L71.1371 37.8145V33.6247C71.1371 32.8321 71.1068 32.2264 71.0411 31.8074C70.9755 31.3884 70.819 31.0855 70.5717 30.8937C70.3243 30.7069 69.9154 30.5756 69.3501 30.505V30.1516C69.5873 30.1617 69.8952 30.1769 70.2739 30.1869C70.6525 30.197 71.0058 30.2071 71.339 30.2071C71.6116 30.2071 71.8791 30.2021 72.1467 30.1869C72.4193 30.1769 72.6414 30.1617 72.8181 30.1516Z" fill="#1B3764"/>
<path d="M116.998 30.1516C117.342 30.1617 117.791 30.1769 118.356 30.1869C118.917 30.197 119.482 30.2071 120.047 30.2071C120.638 30.2071 121.203 30.2021 121.749 30.1869C122.294 30.1769 122.677 30.1668 122.9 30.1668C124.52 30.1668 125.721 30.4293 126.514 30.9442C127.306 31.4641 127.7 32.1304 127.7 32.9482C127.7 33.3622 127.554 33.7912 127.256 34.2355C126.963 34.6797 126.514 35.0684 125.908 35.4066C125.307 35.7448 124.54 35.972 123.606 36.0881V36.1234C124.823 36.184 125.797 36.3708 126.529 36.6888C127.261 37.0069 127.791 37.3956 128.124 37.8499C128.457 38.3042 128.619 38.7737 128.619 39.2583C128.619 40.4395 128.144 41.3078 127.2 41.8631C126.256 42.4184 124.954 42.696 123.303 42.696C123.021 42.696 122.602 42.6859 122.051 42.6708C121.501 42.6506 120.845 42.6455 120.078 42.6455C119.487 42.6455 118.912 42.6506 118.351 42.6556C117.791 42.6607 117.337 42.6758 116.993 42.701V42.3477C117.357 42.3224 117.629 42.277 117.806 42.2063C117.983 42.1357 118.099 41.9943 118.159 41.7823C118.22 41.5703 118.25 41.2523 118.25 40.8232V32.0295C118.25 31.5903 118.22 31.2723 118.159 31.0653C118.099 30.8583 117.978 30.717 117.796 30.6413C117.614 30.5655 117.347 30.5201 116.988 30.51V30.1516H116.998ZM122.814 30.505C122.41 30.505 122.152 30.6059 122.036 30.8079C121.92 31.0098 121.86 31.4187 121.86 32.0295V40.8181C121.86 41.434 121.935 41.8328 122.082 42.0145C122.228 42.1962 122.541 42.2871 123.011 42.2871C123.672 42.2871 124.151 42.0196 124.454 41.4794C124.757 40.9443 124.909 40.177 124.909 39.1826C124.909 38.2739 124.692 37.5722 124.263 37.0725C123.833 36.5778 123.112 36.3304 122.107 36.3304H120.815V36.0275H122.339C122.799 36.0275 123.157 35.8963 123.404 35.6287C123.652 35.3612 123.823 35.0078 123.919 34.5636C124.015 34.1194 124.061 33.6449 124.061 33.135C124.061 32.2617 123.965 31.6004 123.778 31.1612C123.581 30.7271 123.263 30.505 122.814 30.505Z" fill="#1B3764"/>
<path d="M138.089 29.9044C139.422 29.9044 140.593 30.1568 141.597 30.6667C142.602 31.1765 143.379 31.9034 143.935 32.8575C144.49 33.8066 144.767 34.9626 144.767 36.3205C144.767 37.6431 144.485 38.8041 143.919 39.7935C143.354 40.788 142.561 41.5603 141.552 42.1156C140.542 42.6709 139.381 42.9486 138.069 42.9486C136.736 42.9486 135.565 42.6962 134.56 42.1863C133.556 41.6765 132.778 40.9445 132.223 39.9904C131.668 39.0313 131.39 37.8803 131.39 36.5325C131.39 35.2099 131.678 34.0489 132.248 33.0594C132.819 32.065 133.611 31.2926 134.616 30.7373C135.62 30.1821 136.776 29.9044 138.089 29.9044ZM138.018 30.2224C137.428 30.2224 136.913 30.49 136.479 31.02C136.039 31.5501 135.706 32.282 135.469 33.2159C135.232 34.1498 135.116 35.2301 135.116 36.4568C135.116 37.7087 135.252 38.7991 135.524 39.7279C135.797 40.6568 136.161 41.3685 136.625 41.8733C137.084 42.3781 137.594 42.6255 138.149 42.6255C138.74 42.6255 139.255 42.3579 139.689 41.8279C140.128 41.2979 140.461 40.5608 140.699 39.6219C140.936 38.683 141.052 37.6027 141.052 36.3861C141.052 35.1241 140.916 34.0287 140.643 33.1099C140.371 32.1861 140.007 31.4744 139.543 30.9746C139.083 30.4748 138.574 30.2224 138.018 30.2224Z" fill="#1B3764"/>
<path d="M154.521 29.9044C155.853 29.9044 157.024 30.1568 158.029 30.6667C159.033 31.1765 159.811 31.9034 160.366 32.8575C160.921 33.8066 161.199 34.9626 161.199 36.3205C161.199 37.6431 160.916 38.8041 160.351 39.7935C159.786 40.788 158.993 41.5603 157.983 42.1156C156.974 42.6709 155.813 42.9486 154.5 42.9486C153.168 42.9486 151.997 42.6962 150.992 42.1863C149.987 41.6765 149.21 40.9445 148.655 39.9904C148.099 39.0313 147.822 37.8803 147.822 36.5325C147.822 35.2099 148.11 34.0489 148.68 33.0594C149.25 32.065 150.043 31.2926 151.047 30.7373C152.047 30.1821 153.208 29.9044 154.521 29.9044ZM154.445 30.2224C153.854 30.2224 153.339 30.49 152.905 31.02C152.466 31.5501 152.133 32.282 151.896 33.2159C151.658 34.1498 151.542 35.2301 151.542 36.4568C151.542 37.7087 151.678 38.7991 151.951 39.7279C152.224 40.6568 152.587 41.3685 153.052 41.8733C153.511 42.3781 154.021 42.6255 154.576 42.6255C155.167 42.6255 155.682 42.3579 156.116 41.8279C156.555 41.2979 156.888 40.5608 157.125 39.6219C157.363 38.683 157.479 37.6027 157.479 36.3861C157.479 35.1241 157.342 34.0287 157.07 33.1099C156.797 32.1861 156.434 31.4744 155.969 30.9746C155.51 30.4748 155.005 30.2224 154.445 30.2224Z" fill="#1B3764"/>
<path d="M170.079 30.1517V30.505C169.725 30.5151 169.458 30.5605 169.271 30.6363C169.089 30.712 168.968 30.8533 168.907 31.0603C168.847 31.2673 168.817 31.5903 168.817 32.0245V40.8131C168.817 41.2372 168.847 41.5552 168.912 41.7722C168.978 41.9843 169.099 42.1256 169.276 42.1963C169.453 42.267 169.72 42.3124 170.073 42.3376V42.691C169.73 42.6658 169.291 42.6506 168.751 42.6456C168.211 42.6405 167.666 42.6355 167.11 42.6355C166.474 42.6355 165.874 42.6405 165.313 42.6456C164.753 42.6506 164.299 42.6658 163.955 42.691V42.3376C164.319 42.3124 164.591 42.267 164.768 42.1963C164.945 42.1256 165.061 41.9843 165.121 41.7722C165.182 41.5602 165.212 41.2422 165.212 40.8131V32.0295C165.212 31.5903 165.182 31.2723 165.121 31.0654C165.061 30.8584 164.94 30.717 164.758 30.6413C164.576 30.5656 164.309 30.5202 163.95 30.5101V30.1567C164.293 30.1668 164.743 30.1819 165.308 30.192C165.868 30.2021 166.469 30.2122 167.105 30.2122C167.661 30.2122 168.206 30.2072 168.746 30.192C169.296 30.1769 169.735 30.1618 170.079 30.1517ZM176.565 30.1517V30.4899C176.161 30.5959 175.717 30.7928 175.228 31.0754C174.738 31.3581 174.213 31.8125 173.658 32.4384L170.397 36.1437L171.83 34.2658L176.03 41.2674C176.182 41.5148 176.338 41.7218 176.49 41.8884C176.641 42.0549 176.848 42.2064 177.11 42.3477V42.7011C176.616 42.6759 176.086 42.6607 175.525 42.6557C174.965 42.6506 174.43 42.6456 173.92 42.6456C173.647 42.6456 173.309 42.6506 172.91 42.6557C172.512 42.6607 172.002 42.6759 171.386 42.7011V42.3477C171.941 42.3225 172.264 42.2569 172.35 42.1509C172.436 42.0448 172.396 41.8429 172.219 41.5501L169.649 37.2088C169.533 36.9968 169.427 36.8353 169.331 36.7293C169.235 36.6232 169.145 36.5475 169.059 36.497C168.968 36.4516 168.857 36.4213 168.716 36.4062V36.0326C169.235 36.0074 169.725 35.8358 170.185 35.5076C170.644 35.1846 171.199 34.6545 171.85 33.9225L172.451 33.2512C172.946 32.6959 173.208 32.2163 173.239 31.8074C173.269 31.3985 173.143 31.0805 172.865 30.8483C172.587 30.6161 172.224 30.4949 171.775 30.4848V30.1466C172.269 30.1567 172.729 30.1718 173.148 30.1819C173.567 30.192 174.107 30.2021 174.768 30.2021C175.495 30.2072 176.091 30.187 176.565 30.1517Z" fill="#1B3764"/>
<path d="M183.956 29.9044C184.723 29.9044 185.319 29.9801 185.748 30.1366C186.172 30.2881 186.535 30.4496 186.828 30.6162C186.969 30.697 187.085 30.7626 187.171 30.803C187.257 30.8434 187.343 30.8635 187.429 30.8635C187.615 30.8635 187.747 30.6061 187.817 30.0861H188.226C188.216 30.3335 188.201 30.6212 188.181 30.9544C188.161 31.2876 188.151 31.7217 188.146 32.2669C188.14 32.8121 188.135 33.5239 188.135 34.4123H187.727C187.681 33.7611 187.53 33.1301 187.272 32.5143C187.02 31.8984 186.671 31.3936 186.227 30.9897C185.783 30.5859 185.258 30.389 184.642 30.389C184.122 30.389 183.693 30.5304 183.35 30.8131C183.007 31.0958 182.835 31.5046 182.835 32.0347C182.835 32.4739 182.941 32.8474 183.153 33.1604C183.365 33.4734 183.698 33.8015 184.153 34.1448C184.607 34.488 185.208 34.9171 185.95 35.4371C186.48 35.8056 186.964 36.169 187.393 36.5375C187.822 36.9061 188.171 37.3149 188.428 37.7794C188.686 38.2438 188.817 38.794 188.817 39.4452C188.817 40.2378 188.595 40.894 188.151 41.414C187.706 41.9339 187.121 42.3226 186.389 42.575C185.657 42.8274 184.859 42.9536 183.996 42.9536C183.193 42.9536 182.552 42.8829 182.073 42.7416C181.593 42.6002 181.189 42.4539 180.861 42.2974C180.599 42.1308 180.402 42.05 180.26 42.05C180.074 42.05 179.942 42.3075 179.872 42.8274H179.463C179.488 42.5195 179.503 42.1611 179.508 41.7572C179.513 41.3534 179.518 40.8233 179.529 40.1721C179.534 39.5209 179.539 38.6981 179.539 37.6885H179.947C179.993 38.5164 180.129 39.2887 180.346 40.0106C180.563 40.7325 180.902 41.313 181.356 41.7572C181.81 42.2015 182.416 42.4236 183.173 42.4236C183.824 42.4236 184.339 42.2721 184.723 41.9642C185.107 41.6563 185.298 41.2322 185.298 40.687C185.298 39.9551 185.056 39.3443 184.572 38.8546C184.087 38.3649 183.466 37.8652 182.709 37.3553C182.153 36.9767 181.634 36.5981 181.149 36.2195C180.664 35.8409 180.276 35.4169 179.988 34.9424C179.7 34.4678 179.554 33.9075 179.554 33.2614C179.554 32.484 179.761 31.8479 180.175 31.3583C180.589 30.8686 181.134 30.5051 181.805 30.2679C182.477 30.0306 183.198 29.9044 183.956 29.9044Z" fill="#1B3764"/>
<path d="M41.0205 4.53293V3.4375H43.7616V4.53293H41.0205Z" fill="#1B3764"/>
<path d="M50.728 6.46684V0.0507812H53.4489C53.7417 0.0507812 54.0143 0.111358 54.2617 0.232511C54.509 0.353664 54.7261 0.515201 54.9078 0.722171C55.0895 0.929141 55.2359 1.1563 55.3369 1.4087C55.4379 1.66111 55.4883 1.91856 55.4883 2.1861C55.4883 2.54956 55.4025 2.89283 55.2359 3.2159C55.0693 3.53898 54.8371 3.80653 54.5393 4.01349C54.2415 4.22046 53.8932 4.32143 53.4893 4.32143H51.9698V6.47189H50.728V6.46684ZM51.9749 3.22095H53.4186C53.5701 3.22095 53.7064 3.18057 53.8275 3.09475C53.9487 3.00893 54.0446 2.88778 54.1153 2.72624C54.1859 2.56471 54.2263 2.38298 54.2263 2.18106C54.2263 1.95894 54.1859 1.76712 54.1052 1.61063C54.0244 1.45414 53.9184 1.33803 53.7871 1.25726C53.6559 1.17649 53.5196 1.14116 53.3682 1.14116H51.9749V3.22095Z" fill="#1B3764"/>
<path d="M62.6264 5.37647V6.47189H58.1689V0.0507812H62.5456V1.14621H59.4158V2.69091H62.1165V3.70556H59.4158V5.37647H62.6264Z" fill="#1B3764"/>
<path d="M65.4072 6.46684V0.0507812H68.2442C68.5421 0.0507812 68.8096 0.111358 69.062 0.232511C69.3094 0.353664 69.5264 0.515201 69.7132 0.722171C69.8949 0.929141 70.0363 1.1563 70.1372 1.4087C70.2382 1.66111 70.2887 1.91856 70.2887 2.1861C70.2887 2.4587 70.2433 2.71615 70.1473 2.96855C70.0514 3.22095 69.9202 3.43802 69.7435 3.6248C69.5668 3.81157 69.3649 3.95797 69.1276 4.05893L70.5916 6.47189H69.2185L67.901 4.32143H66.6541V6.47189H65.4072V6.46684ZM66.6541 3.22095H68.219C68.3755 3.22095 68.5118 3.17552 68.6329 3.07961C68.7541 2.98874 68.85 2.86254 68.9207 2.70605C68.9913 2.54956 69.0317 2.37288 69.0317 2.18106C69.0317 1.97409 68.9913 1.7974 68.9055 1.64091C68.8197 1.48947 68.7137 1.36327 68.5824 1.27241C68.4512 1.18154 68.3149 1.13611 68.1635 1.13611H66.6541V3.22095Z" fill="#1B3764"/>
<path d="M73.2271 6.46684V0.0507812H77.5381V1.14621H74.4739V2.80196H77.0232V3.81662H74.4739V6.47189H73.2271V6.46684Z" fill="#1B3764"/>
<path d="M84.6811 5.37647V6.47189H80.2236V0.0507812H84.6003V1.14621H81.4705V2.69091H84.1712V3.70556H81.4705V5.37647H84.6811Z" fill="#1B3764"/>
<path d="M86.9575 3.20546C86.9575 2.81172 87.0282 2.42807 87.1695 2.05451C87.3109 1.67591 87.5179 1.33264 87.7905 1.02471C88.063 0.716779 88.3912 0.469425 88.7849 0.282647C89.1787 0.100918 89.6229 0.00500488 90.1226 0.00500488C90.7133 0.00500488 91.2231 0.136254 91.6573 0.393704C92.0863 0.651154 92.4094 0.989373 92.6214 1.40836L91.6623 2.06965C91.5512 1.82735 91.4099 1.63552 91.2383 1.49418C91.0616 1.35283 90.8748 1.25187 90.6779 1.19634C90.4811 1.14081 90.2842 1.11053 90.0924 1.11053C89.7794 1.11053 89.5068 1.17615 89.2746 1.30235C89.0424 1.42855 88.8505 1.59514 88.694 1.80211C88.5376 2.00908 88.4215 2.23624 88.3457 2.48864C88.27 2.74104 88.2347 2.99345 88.2347 3.24585C88.2347 3.52854 88.2801 3.80113 88.371 4.06363C88.4618 4.32613 88.588 4.55834 88.7546 4.76026C88.9212 4.96218 89.1181 5.12372 89.3503 5.23983C89.5825 5.35593 89.8349 5.41651 90.1125 5.41651C90.3094 5.41651 90.5113 5.38117 90.7183 5.31555C90.9253 5.24992 91.1121 5.14391 91.2887 4.99752C91.4654 4.85113 91.5967 4.66435 91.6976 4.43719L92.7173 5.02276C92.5911 5.34079 92.3842 5.61338 92.0964 5.83549C91.8087 6.05761 91.4907 6.22924 91.1323 6.3403C90.7789 6.4564 90.4255 6.51193 90.0772 6.51193C89.6178 6.51193 89.1989 6.41602 88.8202 6.22924C88.4416 6.03742 88.1135 5.78501 87.8409 5.47204C87.5683 5.15401 87.3513 4.80065 87.1998 4.4069C87.0332 4.0081 86.9575 3.60931 86.9575 3.20546Z" fill="#1B3764"/>
<path d="M100.153 1.14621H98.0989V6.46684H96.8622V1.14621H94.8076V0.0507812H100.148V1.14621H100.153Z" fill="#1B3764"/>
<path d="M110.295 1.73148C110.254 1.69109 110.173 1.63052 110.062 1.55985C109.951 1.48917 109.815 1.4185 109.653 1.35288C109.492 1.28725 109.32 1.22667 109.134 1.17619C108.947 1.12571 108.755 1.10047 108.563 1.10047C108.225 1.10047 107.972 1.16105 107.801 1.28725C107.629 1.41345 107.543 1.59013 107.543 1.8173C107.543 1.99398 107.599 2.13027 107.705 2.23124C107.816 2.3322 107.978 2.41801 108.195 2.49373C108.412 2.56441 108.684 2.64517 109.007 2.72594C109.431 2.8269 109.795 2.95311 110.108 3.0995C110.416 3.24589 110.658 3.43772 110.82 3.67498C110.986 3.91223 111.067 4.22521 111.067 4.61391C111.067 4.95718 111.001 5.24996 110.875 5.49227C110.749 5.73458 110.572 5.93145 110.35 6.08289C110.128 6.23433 109.876 6.34034 109.593 6.41101C109.31 6.48169 109.007 6.51702 108.689 6.51702C108.371 6.51702 108.048 6.48169 107.73 6.41606C107.412 6.35044 107.104 6.25453 106.806 6.13337C106.509 6.01222 106.241 5.86078 105.994 5.6841L106.544 4.60886C106.599 4.66439 106.695 4.73506 106.832 4.82088C106.968 4.9067 107.14 4.99756 107.336 5.08338C107.533 5.1692 107.75 5.24492 107.988 5.30549C108.225 5.36607 108.462 5.39636 108.699 5.39636C109.038 5.39636 109.295 5.34083 109.467 5.22472C109.643 5.11367 109.729 4.95213 109.729 4.74011C109.729 4.54829 109.659 4.39685 109.522 4.29084C109.386 4.18483 109.189 4.08891 108.942 4.00815C108.694 3.92738 108.402 3.83651 108.063 3.7406C107.66 3.6245 107.321 3.49829 107.049 3.35695C106.776 3.2156 106.574 3.03892 106.443 2.82186C106.312 2.60479 106.246 2.33724 106.246 2.00912C106.246 1.56994 106.352 1.20143 106.559 0.908648C106.766 0.610813 107.049 0.388699 107.402 0.23221C107.755 0.0807687 108.154 0 108.588 0C108.891 0 109.174 0.0353363 109.441 0.100961C109.709 0.166585 109.961 0.252402 110.199 0.363459C110.436 0.474516 110.643 0.590621 110.83 0.716822L110.295 1.73148Z" fill="#1B3764"/>
<path d="M118.619 1.14621H116.565V6.46684H115.328V1.14621H113.273V0.0507812H118.614V1.14621H118.619Z" fill="#1B3764"/>
<path d="M123.819 6.51198C123.349 6.51198 122.92 6.42111 122.541 6.23938C122.158 6.05765 121.83 5.81535 121.557 5.50237C121.284 5.19444 121.072 4.84107 120.921 4.45237C120.77 4.06367 120.694 3.66488 120.694 3.25599C120.694 2.8269 120.775 2.41801 120.931 2.02931C121.093 1.64061 121.31 1.2923 121.592 0.989416C121.875 0.686534 122.203 0.444228 122.587 0.267546C122.971 0.0908648 123.39 0 123.849 0C124.313 0 124.737 0.0959128 125.121 0.28269C125.505 0.469468 125.833 0.72187 126.1 1.03485C126.373 1.34783 126.58 1.69614 126.731 2.08484C126.883 2.47354 126.958 2.86729 126.958 3.27618C126.958 3.70022 126.878 4.10406 126.721 4.49276C126.565 4.88146 126.348 5.22977 126.065 5.53266C125.787 5.83554 125.454 6.07784 125.07 6.24948C124.687 6.42616 124.268 6.51198 123.819 6.51198ZM121.956 3.26104C121.956 3.53868 121.996 3.80622 122.082 4.06367C122.168 4.32113 122.289 4.55333 122.451 4.75526C122.612 4.95718 122.804 5.11872 123.036 5.23482C123.268 5.35093 123.531 5.4115 123.829 5.4115C124.132 5.4115 124.399 5.35093 124.631 5.22472C124.869 5.10357 125.06 4.93699 125.217 4.72497C125.373 4.518 125.495 4.28579 125.575 4.02834C125.656 3.77089 125.696 3.51344 125.696 3.25599C125.696 2.97835 125.651 2.7108 125.565 2.4584C125.479 2.20095 125.353 1.97378 125.197 1.77186C125.04 1.56994 124.843 1.4084 124.611 1.2923C124.379 1.17619 124.116 1.11562 123.829 1.11562C123.521 1.11562 123.253 1.17619 123.021 1.3024C122.789 1.42355 122.597 1.59013 122.435 1.7971C122.279 2.00407 122.158 2.23124 122.077 2.48364C121.996 2.73604 121.956 2.99349 121.956 3.26104Z" fill="#1B3764"/>
<path d="M129.72 6.46684V0.0507812H132.557C132.855 0.0507812 133.122 0.111358 133.375 0.232511C133.622 0.353664 133.839 0.515201 134.026 0.722171C134.207 0.929141 134.349 1.1563 134.45 1.4087C134.551 1.66111 134.601 1.91856 134.601 2.1861C134.601 2.4587 134.556 2.71615 134.46 2.96855C134.364 3.22095 134.233 3.43802 134.056 3.6248C133.879 3.81157 133.677 3.95797 133.44 4.05893L134.904 6.47189H133.531L132.213 4.32143H130.967V6.47189H129.72V6.46684ZM130.967 3.22095H132.531C132.688 3.22095 132.824 3.17552 132.945 3.07961C133.067 2.98874 133.162 2.86254 133.233 2.70605C133.304 2.54956 133.344 2.37288 133.344 2.18106C133.344 1.97409 133.304 1.7974 133.218 1.64091C133.132 1.48947 133.026 1.36327 132.895 1.27241C132.764 1.18154 132.627 1.13611 132.476 1.13611H130.967V3.22095Z" fill="#1B3764"/>
<path d="M141.996 5.37647V6.47189H137.539V0.0507812H141.916V1.14621H138.791V2.69091H141.492V3.70556H138.791V5.37647H141.996Z" fill="#1B3764"/>
<path d="M148.609 4.53293V3.4375H151.35V4.53293H148.609Z" fill="#1B3764"/>
<path d="M97.5687 28.6071C97.6141 28.5365 97.6747 28.4708 97.7403 28.4254L97.7454 28.4102C98.5379 27.6783 99.4718 27.1937 100.522 26.6788C101.602 26.1538 102.647 25.6187 103.616 24.8312C105.272 23.4884 106.731 21.5802 108.215 18.8341C108.932 17.5014 109.568 16.1385 110.158 14.8613C110.224 14.72 110.194 14.5635 110.078 14.4877C109.967 14.412 109.729 14.4019 109.598 14.5736C108.311 16.2748 106.544 17.35 104.823 18.4C104.404 18.6574 103.97 18.9199 103.551 19.1875C102.647 19.768 101.486 20.5706 100.507 21.6307C99.5021 22.7211 98.6843 24.1043 97.9372 25.9771C97.6747 26.6384 97.4172 27.3401 97.18 28.0518C97.1648 28.0771 97.1497 28.1023 97.1345 28.1276C97.1295 28.1326 97.1295 28.1326 97.1244 28.1377C97.079 28.1831 97.0487 28.2437 97.0336 28.3042C96.5237 29.1977 96.0694 30.1215 95.6504 31.0605C95.6555 30.9848 95.6656 30.904 95.6706 30.8283C95.8372 28.8494 95.7362 27.2997 95.3576 25.9519C94.9891 24.6394 94.3632 23.5036 93.8584 22.6555C93.6261 22.2617 93.3738 21.873 93.1314 21.4843C92.1471 19.9346 91.1324 18.3293 90.7791 16.3252C90.7437 16.1233 90.5367 16.0425 90.4055 16.0779C90.2743 16.1132 90.1834 16.2394 90.1783 16.3959C90.1329 17.774 90.0875 19.2481 90.1279 20.717C90.2036 23.7509 90.6175 26.0074 91.4303 27.8146C91.9048 28.8696 92.5459 29.7278 93.2223 30.5809C93.8786 31.4138 94.454 32.1862 94.8023 33.1352L94.7922 33.2109C94.4439 34.1499 94.131 35.0989 93.8432 36.053C93.5706 36.9616 93.3182 37.8804 93.081 38.7991C93.0507 38.6325 93.0204 38.4609 92.9901 38.2994C92.6822 36.6991 92.2127 35.4876 91.511 34.4881C90.8295 33.5189 89.9209 32.7415 89.2091 32.171C88.881 31.9085 88.5327 31.646 88.1945 31.3835C86.8315 30.3487 85.4231 29.2785 84.5851 27.7591C84.5043 27.6076 84.2873 27.5874 84.1661 27.6379C84.1005 27.6631 84.05 27.7136 84.0197 27.7792C83.9894 27.8398 83.9844 27.9105 83.9995 27.9761C84.2822 29.0766 84.5902 30.2528 84.9789 31.4088C85.7815 33.8016 86.7406 35.5078 87.9875 36.7799C88.7144 37.522 89.5726 38.0722 90.456 38.6224C91.3192 39.1525 92.0815 39.6522 92.662 40.3337L92.6721 40.4448C92.3137 41.9441 91.9754 43.4484 91.6271 44.9527C91.4504 45.7149 91.2738 46.4772 91.087 47.2344C91.0819 47.2193 91.0819 47.2041 91.0769 47.189C90.8346 45.8361 90.456 44.8164 89.8805 43.9835C89.3252 43.1707 88.5781 42.5195 87.9976 42.045C87.73 41.8279 87.4473 41.6109 87.1748 41.3989L87.1647 41.3888C86.049 40.5306 84.8981 39.6371 84.2216 38.37C84.1459 38.2287 83.9541 38.2186 83.8531 38.264C83.737 38.3145 83.6714 38.4458 83.7017 38.572C83.9238 39.5008 84.1712 40.4852 84.4841 41.4594C85.1303 43.4686 85.9077 44.9022 86.9274 45.9673C87.5231 46.5883 88.2247 47.0476 88.9567 47.5019C89.6281 47.9209 90.2187 48.3147 90.6831 48.8397C90.244 50.5106 89.7442 52.1663 89.1435 53.7918C88.6387 55.1497 88.0481 56.4774 87.3716 57.7545C87.4726 58.0019 87.5735 58.2543 87.6745 58.5067C88.2651 57.4516 88.7952 56.3562 89.2596 55.2305C90.4358 52.3784 91.2435 49.395 91.9553 46.4116C92.0512 46.0077 92.1471 45.5988 92.243 45.1899C93.081 45.1193 93.8987 45.296 94.8023 45.5231C95.7615 45.7654 96.7004 45.9774 97.71 45.9472C99.4364 45.8967 101.314 45.296 103.606 44.0541C104.717 43.4534 105.792 42.777 106.791 42.1409C106.908 42.0652 106.963 41.9188 106.928 41.7876C106.892 41.6513 106.731 41.4998 106.559 41.5554C104.903 42.1005 103.228 41.8734 101.602 41.6563C101.203 41.6008 100.794 41.5453 100.396 41.5049C99.5273 41.414 98.3814 41.3383 97.2305 41.5705C96.0492 41.8128 94.8478 42.3933 93.4495 43.3979C93.1314 43.6301 92.8033 43.8724 92.4802 44.1299C92.9447 42.1005 93.404 40.0662 93.9442 38.052L94.0249 37.9359C94.9235 37.4715 95.8675 37.2898 96.9124 37.1131C97.9877 36.9364 99.0427 36.7345 100.103 36.2751C101.92 35.4876 103.742 34.0994 105.847 31.9085C106.867 30.8485 107.826 29.7328 108.72 28.6828C108.821 28.5667 108.836 28.4052 108.765 28.2941C108.69 28.178 108.483 28.0973 108.321 28.2235C106.706 29.4703 104.873 29.965 103.096 30.4547C102.662 30.5708 102.213 30.697 101.774 30.8283C100.83 31.111 99.598 31.5299 98.442 32.2518C97.2557 32.9939 96.135 34.0742 94.9235 35.6441C94.762 35.8561 94.6004 36.0732 94.4389 36.2902C95.1961 33.746 96.135 31.2472 97.4071 28.9201C97.4526 28.804 97.5081 28.7081 97.5687 28.6071ZM105.923 21.3783C105.161 22.4586 104.353 23.3774 103.525 24.0992C102.541 24.9574 101.466 25.5329 100.542 25.9872L100.375 26.068C99.8655 26.3153 99.3052 26.5879 98.76 26.911C99.8251 25.6187 101.133 24.6242 102.4 23.7105C102.531 23.6146 102.657 23.5237 102.788 23.4329L102.819 23.4127C103.566 22.8776 104.338 22.3223 105.07 21.7115C105.736 21.1562 106.322 20.5858 106.847 19.98C106.534 20.4747 106.231 20.9391 105.923 21.3783ZM100.729 22.3173C101.991 20.8331 103.616 19.8488 105.186 18.8896C105.741 18.5514 106.317 18.2031 106.867 17.8346C107.387 17.4863 107.852 17.1481 108.265 16.8098C107.912 17.4106 107.559 17.9608 107.2 18.4757C106.544 19.4146 105.767 20.2728 104.888 21.03C104.106 21.7064 103.258 22.3173 102.44 22.9028C101.516 23.5641 100.562 24.2507 99.6838 25.0432C99.2598 25.4269 98.8761 25.8105 98.5278 26.2043C98.9922 25.0331 99.6889 23.5338 100.729 22.3173ZM90.7235 38.0873L90.5872 38.0015C89.825 37.5321 88.9517 36.9414 88.2247 36.1388C87.6089 35.4573 87.0536 34.6294 86.574 33.6703C86.4024 33.3321 86.2409 32.9737 86.0844 32.6001C86.4226 33.1049 86.8214 33.5946 87.2858 34.0792C87.831 34.6547 88.4317 35.1898 89.0122 35.7097L89.3353 36.0025C90.2843 36.8556 91.2586 37.7794 91.9653 38.9001C91.5514 38.5972 91.1223 38.3297 90.7235 38.0873ZM91.5666 37.3402C90.9154 36.6032 90.1783 35.9369 89.4666 35.2958C88.8305 34.7254 88.1793 34.1398 87.5937 33.5037C86.9425 32.792 86.4024 32.0095 85.9885 31.1816C85.7764 30.7525 85.5745 30.2982 85.3827 29.8086C85.6856 30.1165 86.0238 30.4244 86.4125 30.7475C86.8466 31.1059 87.301 31.4542 87.7452 31.7874C88.9971 32.7364 90.2944 33.7208 91.1526 35.0585C91.8391 36.1287 92.1723 37.3756 92.3641 38.3599C92.1319 38.0217 91.8694 37.6835 91.5666 37.3402ZM89.2041 47.0123L89.093 46.9416C88.4721 46.5529 87.7553 46.0633 87.1596 45.3969C86.6599 44.8315 86.2055 44.1349 85.8168 43.3323C85.7058 43.1001 85.5998 42.8577 85.4938 42.6053C85.7462 42.9739 86.0389 43.3323 86.3721 43.6907C86.8214 44.1702 87.311 44.6195 87.7856 45.0536L88.0481 45.296C88.8002 45.9875 89.5675 46.7296 90.138 47.6281C89.825 47.401 89.5019 47.1991 89.2041 47.0123ZM89.9057 46.3762C89.3757 45.7553 88.7699 45.2051 88.1844 44.67C87.6644 44.1955 87.1293 43.7058 86.6548 43.1758C86.1248 42.5852 85.6856 41.9289 85.3524 41.2323C85.1909 40.8991 85.0445 40.5457 84.8981 40.1671C85.1303 40.3993 85.3877 40.6417 85.6755 40.884C86.0288 41.1818 86.4075 41.4746 86.7659 41.7522C87.7906 42.5397 88.8507 43.3575 89.5473 44.4782C90.0824 45.3363 90.35 46.3409 90.5014 47.1536C90.3298 46.8962 90.1279 46.6387 89.9057 46.3762ZM97.0336 42.2469C98.5682 41.8532 100.103 42.0652 101.592 42.2671C102.117 42.3378 102.662 42.4135 103.197 42.459C103.682 42.4993 104.126 42.5145 104.545 42.5044C104.045 42.7467 103.571 42.9537 103.106 43.1303C102.228 43.4635 101.304 43.6604 100.37 43.721C99.5324 43.7765 98.6893 43.7412 97.8665 43.7058C96.9427 43.6654 95.9937 43.6251 95.0346 43.7109C94.5954 43.7513 94.1814 43.8118 93.7826 43.9027C94.6459 43.2818 95.8019 42.565 97.0336 42.2469ZM97.4425 44.3267C97.5788 44.3318 97.7151 44.3368 97.8514 44.3419H97.8665C98.6136 44.3722 99.3809 44.4075 100.153 44.3722C100.81 44.3419 101.425 44.2611 102.021 44.1248C101.627 44.3065 101.244 44.4681 100.87 44.6044C99.8504 44.983 98.8862 45.2101 97.9927 45.2758C96.9377 45.3515 95.9583 45.1496 95.1406 44.9476L94.9942 44.9123C94.56 44.8012 94.0855 44.6851 93.5959 44.6044C94.8932 44.2611 96.2007 44.2762 97.4425 44.3267ZM98.4268 32.9737C99.9513 31.9338 101.632 31.4744 103.263 31.0302C103.838 30.8737 104.434 30.7122 105.015 30.5254C105.545 30.3588 106.019 30.1771 106.463 29.9852C105.989 30.4446 105.534 30.8535 105.08 31.2321C104.232 31.9338 103.308 32.5244 102.334 32.9838C101.461 33.3977 100.557 33.7258 99.6788 34.0439C98.6944 34.4023 97.6747 34.7708 96.6853 35.2655C96.2259 35.4927 95.8019 35.735 95.4031 35.9975C96.1502 35.0282 97.1901 33.8217 98.4268 32.9737ZM99.4062 34.8112L99.8554 34.6496C100.653 34.3619 101.481 34.059 102.284 33.6955C102.98 33.3826 103.621 33.0292 104.222 32.6355C103.838 32.9939 103.465 33.327 103.091 33.635C102.112 34.4427 101.143 35.0787 100.219 35.5229C99.1235 36.0479 98.0331 36.2751 97.1093 36.4316L96.9427 36.4568C96.448 36.5376 95.9079 36.6285 95.3627 36.7648C96.66 35.8612 98.0684 35.3059 99.4062 34.8112ZM93.6161 30.0711L93.5151 29.9398C92.9396 29.2028 92.2834 28.2992 91.8291 27.1735C91.4454 26.2194 91.1577 25.0987 90.9759 23.8418C90.9103 23.3673 90.8548 22.8675 90.8144 22.3425C90.9911 23.0391 91.2283 23.7307 91.5312 24.4324C91.8846 25.2451 92.2884 26.0225 92.6872 26.7747L92.9093 27.1987C93.5706 28.4658 94.2319 29.8237 94.5752 31.3634C94.2673 30.8939 93.924 30.4648 93.6161 30.0711ZM95.0699 30.7778C94.9487 30.3134 94.7973 29.854 94.6156 29.3744C94.2168 28.3396 93.712 27.3804 93.2274 26.4516C92.7932 25.6288 92.349 24.7757 91.9805 23.8822C91.5716 22.8826 91.2839 21.8226 91.1324 20.7372C91.0517 20.1517 90.9911 19.5408 90.9507 18.8846C91.1476 19.3238 91.3848 19.7781 91.6574 20.2577C91.9603 20.7827 92.2935 21.3077 92.6115 21.8074C93.5151 23.231 94.449 24.6999 94.873 26.5021C95.2112 27.9559 95.1709 29.5511 95.0699 30.7778Z" fill="#1B3764"/>
<path d="M52.1008 64.7859H53.6202L52.232 71.3282H55.9978L55.7202 72.671H50.4248L52.1008 64.7859Z" fill="#1B3764"/>
<path d="M61.8179 72.7819C61.2576 72.7819 60.7932 72.6708 60.4348 72.4537C60.0763 72.2316 59.8088 71.9388 59.6422 71.5703C59.4756 71.2018 59.3848 70.7929 59.3848 70.3437C59.3848 69.8742 59.4706 69.43 59.6473 69.0059C59.8189 68.5819 60.0663 68.2033 60.3843 67.8752C60.7023 67.547 61.0809 67.2896 61.51 67.1028C61.9441 66.916 62.4186 66.8201 62.9386 66.8201C63.4989 66.8201 63.9633 66.9312 64.3218 67.1482C64.6802 67.3704 64.9477 67.6632 65.1143 68.0266C65.2859 68.3951 65.3717 68.804 65.3717 69.2583C65.3717 69.7278 65.2859 70.172 65.1092 70.5961C64.9326 71.0201 64.6903 71.3987 64.3722 71.7268C64.0542 72.055 63.6756 72.3124 63.2465 72.4992C62.8124 72.691 62.3379 72.7819 61.8179 72.7819ZM62.04 71.5148C62.2672 71.5148 62.4893 71.4643 62.7064 71.3634C62.9184 71.2624 63.1102 71.116 63.2768 70.9292C63.4434 70.7425 63.5746 70.5203 63.6756 70.2629C63.7766 70.0105 63.827 69.7328 63.827 69.435C63.827 69.1675 63.7867 68.9302 63.7008 68.7283C63.615 68.5264 63.4888 68.3648 63.3222 68.2538C63.1557 68.1427 62.9537 68.0872 62.7165 68.0872C62.4843 68.0872 62.2672 68.1377 62.0552 68.2386C61.8432 68.3396 61.6513 68.486 61.4848 68.6728C61.3182 68.8595 61.1819 69.0867 61.0809 69.3442C60.9799 69.6016 60.9295 69.8792 60.9295 70.1771C60.9295 70.4396 60.9698 70.6718 61.0557 70.8737C61.1415 71.0756 61.2677 71.2372 61.4343 71.3482C61.6009 71.4593 61.8028 71.5148 62.04 71.5148Z" fill="#1B3764"/>
<path d="M70.5718 72.7827C70.0973 72.7827 69.653 72.707 69.234 72.5505C68.8151 72.394 68.4819 72.1719 68.2295 71.8841L68.9716 70.9502C69.2542 71.1925 69.542 71.3793 69.8398 71.5106C70.1377 71.6418 70.4355 71.7024 70.7384 71.7024C70.9453 71.7024 71.122 71.6721 71.2735 71.6115C71.4199 71.551 71.536 71.4702 71.6167 71.3642C71.6975 71.2582 71.7379 71.1421 71.7379 71.0058C71.7379 70.824 71.6571 70.6877 71.4956 70.6019C71.334 70.5161 71.0766 70.4202 70.7283 70.3192C70.3446 70.193 70.0266 70.0769 69.7792 69.9608C69.5319 69.8498 69.3502 69.7135 69.229 69.557C69.1129 69.4005 69.0523 69.1986 69.0523 68.9613C69.0523 68.5524 69.1684 68.189 69.4006 67.8659C69.6328 67.5428 69.9509 67.2904 70.3446 67.1036C70.7384 66.9169 71.1826 66.826 71.6723 66.826C72.0963 66.826 72.4698 66.8916 72.803 67.0229C73.1362 67.1541 73.434 67.356 73.6915 67.6286L72.904 68.5272C72.6667 68.3051 72.4396 68.1435 72.2225 68.0426C72.0054 67.9416 71.7631 67.8911 71.5057 67.8911C71.3138 67.8911 71.1422 67.9164 70.9908 67.9719C70.8393 68.0274 70.7182 68.1082 70.6324 68.2142C70.5415 68.3202 70.5011 68.4515 70.5011 68.6029C70.5011 68.7695 70.5718 68.8906 70.7081 68.9664C70.8444 69.0421 71.0816 69.1329 71.4249 69.2339C71.8388 69.35 72.1821 69.4712 72.4446 69.6024C72.7121 69.7286 72.909 69.8801 73.0453 70.0567C73.1766 70.2334 73.2472 70.4555 73.2472 70.7231C73.2472 71.1269 73.1362 71.4803 72.9141 71.7882C72.692 72.0961 72.379 72.3385 71.9802 72.5151C71.5713 72.6918 71.1018 72.7827 70.5718 72.7827Z" fill="#1B3764"/>
<path d="M85.6195 64.7859H86.9876L88.1335 72.671H86.5585L86.3616 70.7073H83.7417L82.7068 72.671H81.1318L85.6195 64.7859ZM86.2405 69.627L85.9275 66.5275L84.297 69.627H86.2405Z" fill="#1B3764"/>
<path d="M92.8383 66.9059H94.1811L93.9489 67.9812C94.1407 67.7338 94.3628 67.5218 94.6203 67.3502C94.8777 67.1785 95.1554 67.0473 95.4532 66.9564C95.751 66.8656 96.064 66.8201 96.3821 66.8201C96.7203 66.8201 96.9878 66.8807 97.1696 66.9968C97.3563 67.1129 97.4876 67.2745 97.5633 67.4764C97.639 67.6783 97.6794 67.9004 97.6794 68.1528C97.6794 68.3043 97.6693 68.4607 97.6441 68.6122C97.6239 68.7636 97.5936 68.9252 97.5683 69.0867L96.801 72.6759H95.3119L95.9984 69.4603C96.0287 69.3492 96.0489 69.2482 96.059 69.1523C96.0691 69.0564 96.0741 68.9655 96.0741 68.8797C96.0741 68.6223 96.0186 68.4355 95.9025 68.3144C95.7864 68.1932 95.6349 68.1326 95.4431 68.1326C95.2664 68.1326 95.0746 68.1831 94.8676 68.2841C94.6607 68.385 94.4638 68.5264 94.277 68.703C94.0902 68.8797 93.9388 69.0867 93.8126 69.3139L93.0907 72.6759H91.6016L92.8383 66.9059Z" fill="#1B3764"/>
<path d="M102.688 75.1494C102.082 75.1494 101.592 75.0434 101.213 74.8314C100.84 74.6194 100.547 74.3215 100.33 73.9379L101.309 73.1504C101.456 73.423 101.673 73.64 101.956 73.7965C102.238 73.953 102.561 74.0287 102.92 74.0287C103.207 74.0287 103.485 73.9732 103.753 73.8571C104.02 73.746 104.252 73.5694 104.459 73.3321C104.661 73.0948 104.803 72.792 104.873 72.4184L105.03 71.6915C104.777 72.0398 104.469 72.3124 104.101 72.4992C103.732 72.691 103.364 72.7819 102.995 72.7819C102.587 72.7819 102.238 72.6759 101.945 72.4689C101.653 72.2619 101.431 71.9792 101.284 71.6309C101.138 71.2826 101.062 70.8889 101.062 70.4547C101.062 69.9752 101.148 69.5107 101.325 69.0766C101.496 68.6374 101.738 68.2538 102.046 67.9156C102.354 67.5773 102.708 67.3098 103.101 67.1129C103.495 66.916 103.914 66.8201 104.348 66.8201C104.777 66.8201 105.131 66.9211 105.408 67.123C105.686 67.3249 105.893 67.5975 106.024 67.9307L106.236 66.9059H107.549L106.362 72.4134C106.246 72.9838 106.009 73.4785 105.651 73.8823C105.292 74.2862 104.863 74.6042 104.353 74.8213C103.844 75.0383 103.288 75.1494 102.688 75.1494ZM103.768 71.5956C103.914 71.5956 104.061 71.5703 104.207 71.5148C104.353 71.4593 104.49 71.3886 104.626 71.2927C104.757 71.2018 104.883 71.0908 104.994 70.9646C105.106 70.8384 105.201 70.7071 105.282 70.5759L105.57 69.1978C105.54 68.9706 105.469 68.7737 105.358 68.6071C105.247 68.4405 105.111 68.3093 104.954 68.2184C104.798 68.1276 104.621 68.0821 104.429 68.0821C104.187 68.0821 103.955 68.1478 103.743 68.274C103.525 68.4002 103.334 68.5668 103.167 68.7687C103 68.9706 102.864 69.2028 102.768 69.4552C102.672 69.7076 102.622 69.9701 102.622 70.2326C102.622 70.48 102.672 70.7071 102.768 70.9191C102.864 71.1312 103 71.2977 103.172 71.4139C103.334 71.535 103.536 71.5956 103.768 71.5956Z" fill="#1B3764"/>
<path d="M113.006 72.782C112.516 72.782 112.092 72.676 111.733 72.4691C111.375 72.2621 111.102 71.9693 110.911 71.6008C110.719 71.2323 110.628 70.8133 110.628 70.3438C110.628 69.8693 110.719 69.42 110.906 68.991C111.092 68.5619 111.35 68.1934 111.683 67.8652C112.016 67.5371 112.405 67.2847 112.849 67.0979C113.293 66.9112 113.773 66.8152 114.293 66.8152C114.717 66.8152 115.08 66.8758 115.393 67.002C115.706 67.1282 115.944 67.31 116.115 67.5472C116.287 67.7845 116.373 68.0773 116.373 68.4205C116.373 69.0313 116.095 69.4907 115.535 69.8087C114.974 70.1268 114.136 70.2832 113.021 70.2832C112.799 70.2832 112.556 70.2782 112.299 70.2681C112.041 70.258 111.759 70.2378 111.456 70.2075L111.643 69.2736C111.91 69.2938 112.152 69.314 112.375 69.3241C112.597 69.3342 112.814 69.3393 113.031 69.3393C113.51 69.3393 113.894 69.309 114.167 69.2434C114.444 69.1777 114.646 69.0818 114.772 68.9607C114.899 68.8395 114.959 68.6931 114.959 68.5265C114.959 68.3801 114.924 68.264 114.848 68.1732C114.772 68.0823 114.671 68.0116 114.545 67.9662C114.414 67.9208 114.263 67.8955 114.086 67.8955C113.798 67.8955 113.531 67.9611 113.293 68.0974C113.051 68.2337 112.844 68.4155 112.667 68.6477C112.491 68.8799 112.354 69.1474 112.258 69.4453C112.163 69.7431 112.112 70.0611 112.112 70.3943C112.112 70.6417 112.152 70.8638 112.238 71.0657C112.324 71.2676 112.45 71.4191 112.622 71.5301C112.794 71.6412 113.011 71.6917 113.278 71.6917C113.576 71.6917 113.854 71.621 114.116 71.4796C114.379 71.3383 114.591 71.1414 114.742 70.889L115.918 71.2575C115.726 71.5554 115.474 71.8179 115.161 72.045C114.848 72.2722 114.51 72.4539 114.141 72.5852C113.768 72.7164 113.389 72.782 113.006 72.782Z" fill="#1B3764"/>
<path d="M120.689 72.7825C120.32 72.7825 120.032 72.6967 119.825 72.52C119.623 72.3434 119.522 72.096 119.522 71.7679C119.522 71.7023 119.528 71.6316 119.538 71.5609C119.548 71.4902 119.558 71.4196 119.568 71.3439L121.012 64.5643H122.491L121.168 70.8239C121.163 70.8592 121.153 70.8996 121.153 70.935C121.148 70.9703 121.148 71.0107 121.148 71.046C121.148 71.3489 121.299 71.5003 121.602 71.5003C121.683 71.5003 121.779 71.4852 121.885 71.4549C121.991 71.4246 122.092 71.3893 122.188 71.3439L122.142 72.4746C121.935 72.5705 121.693 72.6462 121.421 72.6967C121.148 72.7472 120.906 72.7825 120.689 72.7825Z" fill="#1B3764"/>
<path d="M127.62 72.7827C127.145 72.7827 126.701 72.707 126.282 72.5505C125.863 72.394 125.53 72.1719 125.277 71.8841L126.019 70.9502C126.302 71.1925 126.59 71.3793 126.888 71.5106C127.186 71.6418 127.483 71.7024 127.786 71.7024C127.993 71.7024 128.17 71.6721 128.321 71.6115C128.468 71.551 128.584 71.4702 128.665 71.3642C128.745 71.2582 128.786 71.1421 128.786 71.0058C128.786 70.824 128.705 70.6877 128.543 70.6019C128.382 70.5161 128.124 70.4202 127.776 70.3192C127.392 70.193 127.074 70.0769 126.827 69.9608C126.58 69.8498 126.398 69.7135 126.277 69.557C126.161 69.4005 126.1 69.1986 126.1 68.9613C126.1 68.5524 126.216 68.189 126.448 67.8659C126.681 67.5428 126.999 67.2904 127.392 67.1036C127.786 66.9169 128.23 66.826 128.72 66.826C129.144 66.826 129.518 66.8916 129.851 67.0229C130.184 67.1541 130.482 67.356 130.739 67.6286L129.952 68.5272C129.715 68.3051 129.487 68.1435 129.27 68.0426C129.053 67.9416 128.811 67.8911 128.554 67.8911C128.362 67.8911 128.19 67.9164 128.039 67.9719C127.887 68.0274 127.766 68.1082 127.68 68.2142C127.589 68.3202 127.549 68.4515 127.549 68.6029C127.549 68.7695 127.62 68.8906 127.756 68.9664C127.892 69.0421 128.129 69.1329 128.473 69.2339C128.887 69.35 129.23 69.4712 129.492 69.6024C129.76 69.7286 129.957 69.8801 130.093 70.0567C130.224 70.2334 130.295 70.4555 130.295 70.7231C130.295 71.1269 130.184 71.4803 129.962 71.7882C129.74 72.0961 129.427 72.3385 129.028 72.5151C128.619 72.6918 128.155 72.7827 127.62 72.7827Z" fill="#1B3764"/>
<path d="M133.596 72.6712L133.939 71.071H135.161L134.818 72.6712H133.596Z" fill="#1B3764"/>
</svg>
