<svg width="46" height="46" viewBox="0 0 46 46" fill="none" xmlns="http://www.w3.org/2000/svg">
<rect x="0.25" y="0.5" width="45" height="45" fill="white"/>
<path d="M28.5938 20.25C28.6146 20.3333 28.625 20.4688 28.625 20.6562C28.625 21.7604 28.4167 22.8646 28 23.9688C27.5833 25.0521 26.9896 26.0521 26.2188 26.9688C25.4688 27.8646 24.4896 28.5938 23.2812 29.1562C22.0729 29.7188 20.7396 30 19.2812 30C17.4479 30 15.7708 29.5104 14.25 28.5312C14.4792 28.5521 14.7396 28.5625 15.0312 28.5625C16.5521 28.5625 17.9167 28.0938 19.125 27.1562C18.3958 27.1562 17.75 26.9479 17.1875 26.5312C16.6458 26.0938 16.2708 25.5521 16.0625 24.9062C16.2708 24.9271 16.4688 24.9375 16.6562 24.9375C16.9479 24.9375 17.2396 24.9062 17.5312 24.8438C16.7812 24.6771 16.1562 24.2917 15.6562 23.6875C15.1562 23.0833 14.9062 22.3958 14.9062 21.625V21.5625C15.3646 21.8333 15.8542 21.9792 16.375 22C15.3958 21.3333 14.9062 20.4167 14.9062 19.25C14.9062 18.6667 15.0625 18.1146 15.375 17.5938C16.1875 18.6146 17.1771 19.4271 18.3438 20.0312C19.5312 20.6354 20.7917 20.9688 22.125 21.0312C22.0833 20.7812 22.0625 20.5312 22.0625 20.2812C22.0625 19.3854 22.375 18.6146 23 17.9688C23.6458 17.3229 24.4167 17 25.3125 17C26.2708 17 27.0729 17.3438 27.7188 18.0312C28.4688 17.8854 29.1667 17.625 29.8125 17.25C29.5625 18.0208 29.0833 18.625 28.375 19.0625C29 18.9792 29.625 18.8021 30.25 18.5312C29.7917 19.1979 29.2396 19.7708 28.5938 20.25Z" fill="#1B3764"/>
</svg>
